<svg width="141" height="90" viewBox="0 0 141 90" fill="none" xmlns="http://www.w3.org/2000/svg">
<rect width="141" height="89.2319" fill="#FF6F00"/>
<path d="M37.5927 53.1786L33.8676 62.2252C33.7346 62.4913 33.535 62.6243 33.2689 62.6243C33.1802 62.6243 33.0915 62.6133 33.0029 62.5911C32.8255 62.5024 32.7035 62.3804 32.637 62.2252C32.5705 62.07 32.5705 61.9037 32.637 61.7263L36.4619 52.3803C36.218 52.2917 35.9962 52.2584 35.7967 52.2806C35.6415 52.3471 35.5528 52.3803 35.5306 52.3803C35.3532 52.4469 35.1869 52.4469 35.0317 52.3803C34.8765 52.3138 34.7545 52.203 34.6658 52.0478C34.5993 51.8925 34.5882 51.7373 34.6326 51.5821C34.6991 51.4047 34.81 51.2717 34.9652 51.183C35.1204 51.0943 35.2645 51.0389 35.3976 51.0167C35.7967 50.8837 36.473 50.5732 37.4264 50.0854L49.7658 19.9521C49.8323 19.7747 49.9431 19.6528 50.0984 19.5862C50.2757 19.5197 50.4531 19.5197 50.6305 19.5862C50.8079 19.6749 50.9299 19.7969 50.9964 19.9521C51.0629 20.1073 51.0629 20.2736 50.9964 20.451L39.2224 49.1209C39.6215 48.9213 40.0539 48.6885 40.5196 48.4224C43.2025 46.9812 46.7502 44.7306 51.1627 41.6707C54.6217 39.1208 57.9477 36.1163 61.1406 32.6573C64.3557 29.1761 66.9943 26.0941 69.0564 23.4111C71.1407 20.7282 72.2383 19.2869 72.3491 19.0874C72.46 18.9321 72.6041 18.8434 72.7815 18.8213C72.9589 18.7769 73.1252 18.8102 73.2804 18.9211C73.4356 19.0319 73.5243 19.176 73.5465 19.3534C73.5687 19.5308 73.5354 19.6971 73.4467 19.8523C73.3358 20.0519 72.2272 21.5153 70.1207 24.2426C68.0143 26.9699 65.3313 30.0963 62.0719 33.6219C58.8346 37.1252 55.4532 40.1629 51.9276 42.735C48.4465 45.1741 45.5085 47.0921 43.1138 48.489C41.2069 49.5976 39.6548 50.4513 38.4575 51.05L38.0916 51.8815C39.045 52.6575 40.1094 53.7329 41.2845 55.1076C42.7701 56.8815 44.5662 58.6997 46.6726 60.5622C48.7791 62.4026 51.2846 63.7884 54.1893 64.7197C57.1162 65.6288 60.5308 65.5956 64.4333 64.6199C64.6107 64.5756 64.777 64.5978 64.9322 64.6865C65.0874 64.7751 65.1872 64.9082 65.2315 65.0856C65.2759 65.263 65.2537 65.4293 65.165 65.5845C65.0985 65.7397 64.9655 65.8505 64.7659 65.9171C62.7703 66.4492 60.8413 66.7153 58.9787 66.7153C55.6749 66.7153 52.5263 65.8616 49.5329 64.1543C47.5595 62.9791 45.8189 61.6709 44.3112 60.2296C42.8034 58.7662 41.4619 57.3582 40.2867 56.0057C39.3333 54.9192 38.4685 54.0101 37.6925 53.2784L37.5927 53.1786ZM84.0898 40.7727C82.7151 43.6552 81.3847 46.4823 80.0986 49.2539C78.2361 53.2673 76.8503 56.4602 75.9412 58.8327C75.2095 60.8061 74.633 62.4359 74.2117 63.7219C73.8126 64.9858 73.5243 65.9614 73.3469 66.6488C73.1695 67.3583 73.0587 67.8572 73.0143 68.1455C72.9921 68.4559 72.9921 68.6333 73.0143 68.6776C73.0365 68.8328 73.0032 68.977 72.9145 69.11C72.848 69.2652 72.7372 69.3761 72.5819 69.4426C72.5154 69.4648 72.4378 69.4759 72.3491 69.4759C72.083 69.4759 71.8724 69.3317 71.7172 69.0435C71.4289 68.09 72.4267 64.5312 74.7106 58.3671C75.6197 55.9946 77.0055 52.7795 78.868 48.7218C80.0654 46.1053 81.3071 43.4557 82.5931 40.7727C81.3293 40.7949 80.0765 40.8614 78.8348 40.9723C75.5531 41.2605 72.8148 41.6042 70.6196 42.0033C68.4466 42.4024 67.3047 42.6242 67.1939 42.6685C67.1273 42.6907 67.0719 42.7018 67.0276 42.7018C66.8724 42.7018 66.7393 42.6574 66.6285 42.5687C66.5176 42.48 66.44 42.3581 66.3956 42.2029C66.3513 42.0033 66.3735 41.837 66.4622 41.704C66.5508 41.5488 66.695 41.449 66.8945 41.4046C67.0054 41.3381 68.1695 41.1053 70.3868 40.7062C72.6263 40.2849 75.4201 39.9301 78.7683 39.6419C80.2539 39.5088 81.7505 39.4423 83.2583 39.4423C83.7461 38.4223 84.245 37.3913 84.755 36.3492C86.7949 32.1363 88.5466 28.5664 90.01 25.6395C91.4735 22.6905 92.2606 21.1162 92.3715 20.9166C92.4602 20.7393 92.5821 20.6284 92.7373 20.584C92.9147 20.5175 93.0921 20.5286 93.2695 20.6173C93.4247 20.706 93.5245 20.839 93.5688 21.0164C93.6354 21.1716 93.6354 21.3379 93.5688 21.5153C93.458 21.7149 92.6708 23.2781 91.2074 26.2049C89.744 29.1318 87.9923 32.7017 85.9524 36.9146C85.5532 37.7572 85.143 38.5997 84.7217 39.4423C86.1408 39.4645 87.5599 39.5421 88.979 39.6751C93.7241 40.0964 97.948 40.1075 101.651 39.7084C102.516 37.8458 103.392 35.9833 104.278 34.1208C106.629 29.2205 108.636 25.1074 110.298 21.7814C111.984 18.4332 112.882 16.6594 112.993 16.4598C113.081 16.2824 113.203 16.1716 113.358 16.1272C113.536 16.0607 113.713 16.0718 113.891 16.1605C114.046 16.2492 114.146 16.3822 114.19 16.5596C114.256 16.7148 114.245 16.8811 114.157 17.0585C114.046 17.2581 113.159 19.0208 111.496 22.3468C109.855 25.6728 107.859 29.7748 105.509 34.6529C104.733 36.2937 103.968 37.9234 103.214 39.5421C106.407 39.143 108.735 38.6995 110.199 38.2117C110.376 38.1674 110.542 38.1895 110.698 38.2782C110.853 38.3447 110.964 38.4667 111.03 38.6441C111.075 38.8215 111.052 38.9988 110.964 39.1762C110.897 39.3314 110.775 39.4312 110.598 39.4756C108.957 40.0077 106.274 40.4955 102.549 40.939C101.241 43.755 99.9769 46.5599 98.7574 49.3537C96.5844 54.2762 94.9325 58.4225 93.8017 61.7929C93.0034 64.2762 92.3604 66.3827 91.8726 68.1122C91.3848 69.8639 91.0078 71.3051 90.7418 72.436C90.4757 73.5668 90.2872 74.4426 90.1763 75.0635C90.0877 75.6843 90.0322 76.1167 90.01 76.3606C90.01 76.6267 90.01 76.7708 90.01 76.793V76.7597L88.7129 77.0258C88.6907 76.9815 88.6797 76.8152 88.6797 76.5269C88.6797 76.2608 88.724 75.7952 88.8127 75.13C88.9236 74.487 89.112 73.5779 89.3781 72.4027C89.6442 71.2497 90.0322 69.7641 90.5422 67.9459C91.0522 66.1499 91.7174 63.9658 92.5378 61.3937C93.6686 57.9791 95.3205 53.8105 97.4935 48.8881C98.6465 46.2938 99.8106 43.6996 100.986 41.1053C97.4159 41.4379 93.3693 41.4046 88.846 41.0055C87.2495 40.8503 85.6641 40.7727 84.0898 40.7727Z" fill="#111035"/>
<path d="M37.5927 53.1786L38.2186 52.5526L37.2797 51.6137L36.7742 52.8415L37.5927 53.1786ZM33.8676 62.2252L34.6594 62.6211L34.6738 62.5922L34.6862 62.5623L33.8676 62.2252ZM33.0029 62.5911L32.607 63.3829L32.6939 63.4263L32.7882 63.4499L33.0029 62.5911ZM32.637 61.7263L31.8177 61.391L31.8128 61.4032L31.8081 61.4155L32.637 61.7263ZM36.4619 52.3803L37.2811 52.7156L37.63 51.8632L36.7644 51.5484L36.4619 52.3803ZM35.7967 52.2806L35.6989 51.4008L35.5685 51.4153L35.448 51.4669L35.7967 52.2806ZM35.5306 52.3803V51.4951H35.3701L35.2198 51.5515L35.5306 52.3803ZM34.6658 52.0478L33.8522 52.3965L33.8721 52.443L33.8973 52.4869L34.6658 52.0478ZM34.6326 51.5821L33.8037 51.2713L33.7912 51.3047L33.7814 51.3389L34.6326 51.5821ZM35.3976 51.0167L35.5431 51.8899L35.6116 51.8785L35.6775 51.8565L35.3976 51.0167ZM37.4264 50.0854L37.8296 50.8735L38.1214 50.7242L38.2456 50.4209L37.4264 50.0854ZM49.7658 19.9521L50.585 20.2876L50.59 20.2753L50.5946 20.2629L49.7658 19.9521ZM50.0984 19.5862L49.7875 18.7574L49.7684 18.7646L49.7497 18.7726L50.0984 19.5862ZM50.6305 19.5862L51.0264 18.7945L50.9848 18.7737L50.9413 18.7574L50.6305 19.5862ZM50.9964 20.451L51.8152 20.7873L51.8204 20.7746L51.8252 20.7618L50.9964 20.451ZM39.2224 49.1209L38.4036 48.7846L37.5067 50.9685L39.6183 49.9127L39.2224 49.1209ZM40.5196 48.4224L40.1006 47.6426L40.0904 47.6481L40.0804 47.6539L40.5196 48.4224ZM51.1627 41.6707L51.6671 42.3981L51.6776 42.3908L51.6879 42.3833L51.1627 41.6707ZM61.1406 32.6573L60.4903 32.0567L60.4901 32.0569L61.1406 32.6573ZM69.0564 23.4111L68.3573 22.868L68.3546 22.8717L69.0564 23.4111ZM72.3491 19.0874L71.6288 18.5728L71.5997 18.6136L71.5753 18.6575L72.3491 19.0874ZM72.7815 18.8213L72.8913 19.6997L72.9443 19.693L72.9962 19.6801L72.7815 18.8213ZM73.4467 19.8523L72.6781 19.4131L72.6729 19.4224L73.4467 19.8523ZM62.0719 33.6219L61.4219 33.0209L61.4217 33.0211L62.0719 33.6219ZM51.9276 42.735L52.4356 43.46L52.4425 43.4551L52.4494 43.4502L51.9276 42.735ZM43.1138 48.489L43.5587 49.2542L43.5599 49.2536L43.1138 48.489ZM38.4575 51.05L38.0616 50.2582L37.7759 50.4011L37.6472 50.6934L38.4575 51.05ZM38.0916 51.8815L37.2813 51.5249L37.0097 52.1423L37.5328 52.568L38.0916 51.8815ZM41.2845 55.1076L41.9632 54.5392L41.9574 54.5324L41.2845 55.1076ZM46.6726 60.5622L46.0862 61.2254L46.0902 61.2289L46.6726 60.5622ZM54.1893 64.7197L53.919 65.5627L53.9267 65.5651L54.1893 64.7197ZM65.165 65.5845L64.3964 65.1453L64.3713 65.1892L64.3514 65.2358L65.165 65.5845ZM64.7659 65.9171L64.994 66.7724L65.0202 66.7654L65.0458 66.7569L64.7659 65.9171ZM49.5329 64.1543L49.08 64.9149L49.0872 64.9191L49.0944 64.9232L49.5329 64.1543ZM44.3112 60.2296L43.6946 60.8649L43.6995 60.8695L44.3112 60.2296ZM40.2867 56.0057L40.955 55.4251L40.9521 55.4218L40.2867 56.0057ZM37.6925 53.2784L37.0665 53.9043L37.0757 53.9135L37.0852 53.9224L37.6925 53.2784ZM36.7742 52.8415L33.0491 61.8882L34.6862 62.5623L38.4112 53.5156L36.7742 52.8415ZM33.0758 61.8293C33.0618 61.8574 33.0713 61.8252 33.1271 61.788C33.1542 61.77 33.1838 61.7565 33.2128 61.7482C33.2411 61.7402 33.2613 61.7391 33.2689 61.7391V63.5096C33.5569 63.5096 33.8483 63.435 34.1092 63.2611C34.3645 63.0909 34.5403 62.8592 34.6594 62.6211L33.0758 61.8293ZM33.2689 61.7391C33.2548 61.7391 33.2382 61.7375 33.2176 61.7323L32.7882 63.4499C32.9449 63.4891 33.1057 63.5096 33.2689 63.5096V61.7391ZM33.3987 61.7993C33.3826 61.7913 33.3888 61.7916 33.4043 61.8072C33.4212 61.8241 33.4386 61.8484 33.4506 61.8765L31.8234 62.5739C31.9863 62.9542 32.2767 63.2177 32.607 63.3829L33.3987 61.7993ZM33.4506 61.8765C33.4639 61.9074 33.4723 61.9455 33.4723 61.9841C33.4723 62.0208 33.4647 62.0401 33.4659 62.0372L31.8081 61.4155C31.6721 61.7782 31.6558 62.1829 31.8234 62.5739L33.4506 61.8765ZM33.4563 62.0616L37.2811 52.7156L35.6426 52.0451L31.8177 61.391L33.4563 62.0616ZM36.7644 51.5484C36.4287 51.4263 36.0675 51.3598 35.6989 51.4008L35.8944 53.1604C35.925 53.157 36.0073 53.157 36.1594 53.2123L36.7644 51.5484ZM35.448 51.4669C35.3748 51.4983 35.3284 51.517 35.3029 51.5265C35.2973 51.5287 35.2945 51.5296 35.294 51.5298C35.2933 51.5301 35.2974 51.5286 35.3053 51.5262C35.3118 51.5243 35.3304 51.5188 35.3566 51.5132C35.3701 51.5103 35.3905 51.5063 35.4159 51.5029C35.4397 51.4996 35.48 51.4951 35.5306 51.4951V53.2656C35.6829 53.2656 35.8089 53.2235 35.8141 53.222C35.855 53.2097 35.8939 53.1958 35.9246 53.1843C35.9878 53.1605 36.0633 53.1294 36.1454 53.0942L35.448 51.4669ZM35.2198 51.5515C35.2168 51.5526 35.2361 51.545 35.2728 51.545C35.3115 51.545 35.3496 51.5535 35.3804 51.5667L34.683 53.194C35.0741 53.3616 35.4787 53.3452 35.8414 53.2092L35.2198 51.5515ZM35.3804 51.5667C35.391 51.5713 35.4056 51.5799 35.4193 51.5923C35.4325 51.6043 35.4366 51.6124 35.4344 51.6086L33.8973 52.4869C34.0755 52.7989 34.3401 53.047 34.683 53.194L35.3804 51.5667ZM35.4795 51.699C35.4818 51.7044 35.4885 51.723 35.4906 51.7519C35.4927 51.7813 35.4889 51.8072 35.4837 51.8253L33.7814 51.3389C33.6784 51.6994 33.7095 52.0635 33.8522 52.3965L35.4795 51.699ZM35.4614 51.8929C35.4631 51.8886 35.4595 51.8993 35.4457 51.916C35.4313 51.9332 35.4154 51.9453 35.4044 51.9516L34.526 50.4144C34.1802 50.612 33.9381 50.913 33.8037 51.2713L35.4614 51.8929ZM35.4044 51.9516C35.449 51.9261 35.4832 51.9105 35.5075 51.9011C35.5317 51.8918 35.5432 51.8899 35.5431 51.8899L35.252 50.1435C34.9882 50.1875 34.7443 50.2897 34.526 50.4144L35.4044 51.9516ZM35.6775 51.8565C36.1479 51.6997 36.8788 51.36 37.8296 50.8735L37.0232 49.2974C36.0671 49.7865 35.4454 50.0676 35.1176 50.1769L35.6775 51.8565ZM38.2456 50.4209L50.585 20.2876L48.9466 19.6166L36.6072 49.75L38.2456 50.4209ZM50.5946 20.2629C50.5943 20.2637 50.5842 20.2896 50.5538 20.3231C50.5218 20.3583 50.4831 20.3845 50.4471 20.3999L49.7497 18.7726C49.3444 18.9463 49.0768 19.2681 48.9369 19.6413L50.5946 20.2629ZM50.4092 20.4151C50.4053 20.4166 50.3889 20.4216 50.3644 20.4216C50.3399 20.4216 50.3236 20.4166 50.3197 20.4151L50.9413 18.7574C50.5636 18.6157 50.1653 18.6157 49.7875 18.7574L50.4092 20.4151ZM50.2346 20.378C50.2508 20.3861 50.2446 20.3857 50.2291 20.3702C50.2122 20.3533 50.1948 20.3289 50.1827 20.3008L51.81 19.6034C51.6471 19.2232 51.3567 18.9596 51.0264 18.7945L50.2346 20.378ZM50.1827 20.3008C50.1695 20.27 50.161 20.2319 50.161 20.1932C50.161 20.1565 50.1686 20.1372 50.1675 20.1402L51.8252 20.7618C51.9613 20.3991 51.9776 19.9945 51.81 19.6034L50.1827 20.3008ZM50.1775 20.1147L38.4036 48.7846L40.0413 49.4572L51.8152 20.7873L50.1775 20.1147ZM39.6183 49.9127C40.0346 49.7045 40.4816 49.4637 40.9587 49.191L40.0804 47.6539C39.6262 47.9134 39.2084 48.1382 38.8265 48.3291L39.6183 49.9127ZM40.9385 49.2023C43.665 47.7376 47.2445 45.4651 51.6671 42.3981L50.6582 40.9433C46.2559 43.9961 42.7401 46.2248 40.1006 47.6426L40.9385 49.2023ZM51.6879 42.3833C55.1962 39.797 58.5636 36.7542 61.7911 33.2578L60.4901 32.0569C57.3317 35.4785 54.0472 38.4446 50.6374 40.9582L51.6879 42.3833ZM61.7909 33.2579C65.0176 29.7642 67.6749 26.6611 69.7583 23.9506L68.3546 22.8717C66.3137 25.527 63.6939 28.588 60.4903 32.0567L61.7909 33.2579ZM69.7555 23.9542C70.7981 22.612 71.5957 21.5783 72.1471 20.8543C72.4225 20.4926 72.6385 20.2055 72.7937 19.9948C72.9297 19.8101 73.061 19.6287 73.1229 19.5173L71.5753 18.6575C71.5818 18.6458 71.5343 18.7194 71.3682 18.9449C71.2213 19.1443 71.0119 19.4227 70.7385 19.7816C70.1924 20.4988 69.399 21.5272 68.3574 22.868L69.7555 23.9542ZM73.0695 19.6019C73.065 19.6082 73.0448 19.6334 73.0043 19.6583C72.9626 19.684 72.921 19.6959 72.8913 19.6997L72.6717 17.9429C72.231 17.998 71.8726 18.2315 71.6288 18.5728L73.0695 19.6019ZM72.9962 19.6801C72.9678 19.6872 72.9209 19.692 72.8657 19.681C72.8115 19.6702 72.7774 19.6496 72.7659 19.6414L73.7949 18.2007C73.4391 17.9466 73.008 17.8522 72.5668 17.9625L72.9962 19.6801ZM72.7659 19.6414C72.7596 19.6369 72.7344 19.6168 72.7094 19.5762C72.6837 19.5345 72.6718 19.4929 72.6681 19.4632L74.4249 19.2436C74.3698 18.803 74.1362 18.4445 73.7949 18.2007L72.7659 19.6414ZM72.6681 19.4632C72.6681 19.4635 72.6678 19.4609 72.668 19.4558C72.6681 19.4507 72.6688 19.4445 72.6701 19.4376C72.6715 19.4307 72.6733 19.4247 72.6751 19.4199C72.6769 19.4152 72.6783 19.4129 72.6781 19.4131L74.2153 20.2915C74.399 19.97 74.4708 19.6111 74.4249 19.2436L72.6681 19.4632ZM72.6729 19.4224C72.6789 19.4117 72.6301 19.4871 72.4626 19.7155C72.3142 19.9179 72.1026 20.2005 71.8265 20.565C71.2746 21.2934 70.4729 22.3385 69.4201 23.7015L70.8213 24.7837C71.875 23.4194 72.6808 22.3692 73.2377 21.6341C73.5158 21.2669 73.7338 20.9758 73.8903 20.7625C74.0277 20.5751 74.1591 20.3928 74.2205 20.2822L72.6729 19.4224ZM69.4201 23.7015C67.3345 26.4019 64.6699 29.5077 61.4219 33.0209L62.7219 34.2228C65.9927 30.6849 68.6941 27.5379 70.8213 24.7837L69.4201 23.7015ZM61.4217 33.0211C58.2199 36.4861 54.881 39.4846 51.4059 42.0199L52.4494 43.4502C56.0254 40.8412 59.4493 37.7643 62.722 34.2226L61.4217 33.0211ZM51.4197 42.01C47.9492 44.4416 45.0333 46.3444 42.6678 47.7243L43.5599 49.2536C45.9837 47.8397 48.9437 45.9066 52.4356 43.46L51.4197 42.01ZM42.6689 47.7237C40.7692 48.8281 39.2352 49.6714 38.0616 50.2582L38.8533 51.8417C40.0745 51.2312 41.6446 50.3671 43.5587 49.2542L42.6689 47.7237ZM37.6472 50.6934L37.2813 51.5249L38.9019 52.238L39.2677 51.4065L37.6472 50.6934ZM37.5328 52.568C38.4306 53.2988 39.4565 54.3316 40.6117 55.6828L41.9574 54.5324C40.7622 53.1342 39.6595 52.0162 38.6504 51.1949L37.5328 52.568ZM40.6059 55.676C42.1251 57.49 43.9535 59.3396 46.0862 61.2254L47.259 59.8991C45.1788 58.0598 43.4152 56.273 41.9632 54.5393L40.6059 55.676ZM46.0902 61.2289C48.2955 63.1556 50.9099 64.5979 53.919 65.5627L54.4596 63.8768C51.6594 62.979 49.2626 61.6496 47.255 59.8956L46.0902 61.2289ZM53.9267 65.5651C57.0497 66.5351 60.6362 66.4817 64.648 65.4787L64.2186 63.7611C60.4254 64.7094 57.1826 64.7225 54.4519 63.8743L53.9267 65.5651ZM64.648 65.4787C64.6381 65.4812 64.6113 65.4857 64.5741 65.4808C64.5365 65.4757 64.5082 65.4637 64.493 65.455L65.3714 63.9179C65.013 63.7131 64.6118 63.6628 64.2186 63.7611L64.648 65.4787ZM64.493 65.455C64.4737 65.444 64.4432 65.4211 64.4153 65.3839C64.3876 65.347 64.3763 65.3146 64.3728 65.3003L66.0903 64.8709C65.989 64.4654 65.7415 64.1293 65.3714 63.9179L64.493 65.455ZM64.3728 65.3003C64.3703 65.2903 64.3658 65.2635 64.3707 65.2263C64.3757 65.1888 64.3878 65.1604 64.3964 65.1453L65.9336 66.0237C66.1384 65.6653 66.1886 65.2641 66.0903 64.8709L64.3728 65.3003ZM64.3514 65.2358C64.3746 65.1816 64.4107 65.1356 64.4487 65.104C64.483 65.0754 64.5029 65.0716 64.486 65.0773L65.0458 66.7569C65.4217 66.6316 65.7889 66.376 65.9787 65.9332L64.3514 65.2358ZM64.5378 65.0617C62.6087 65.5762 60.7564 65.8301 58.9787 65.8301V67.6005C60.9261 67.6005 62.932 67.3223 64.994 66.7724L64.5378 65.0617ZM58.9787 65.8301C55.8355 65.8301 52.8373 65.0199 49.9715 63.3854L49.0944 64.9232C52.2154 66.7034 55.5143 67.6005 58.9787 67.6005V65.8301ZM49.9859 63.3937C48.064 62.2493 46.3778 60.9806 44.9228 59.5897L43.6995 60.8695C45.26 62.3613 47.055 63.709 49.08 64.9149L49.9859 63.3937ZM44.9277 59.5944C43.4349 58.1456 42.1112 56.7558 40.955 55.4251L39.6185 56.5863C40.8127 57.9606 42.1718 59.3869 43.6946 60.8649L44.9277 59.5944ZM40.9521 55.4218C39.9862 54.3211 39.1018 53.3905 38.2998 52.6343L37.0852 53.9224C37.8353 54.6297 38.6804 55.5172 39.6214 56.5895L40.9521 55.4218ZM38.3184 52.6524L38.2186 52.5526L36.9668 53.8045L37.0665 53.9043L38.3184 52.6524ZM84.0898 40.7727V39.8875H83.5313L83.2908 40.3916L84.0898 40.7727ZM80.0986 49.2539L80.9016 49.6266L80.9016 49.6265L80.0986 49.2539ZM75.9412 58.8327L75.1145 58.516L75.1112 58.525L75.9412 58.8327ZM74.2117 63.7219L73.3704 63.4463L73.3675 63.4554L74.2117 63.7219ZM73.3469 66.6488L72.4898 66.4276L72.4881 66.4341L73.3469 66.6488ZM73.0143 68.1455L72.1394 68.0109L72.1339 68.0465L72.1314 68.0824L73.0143 68.1455ZM73.0143 68.6776L73.8906 68.5524L73.8703 68.4102L73.8061 68.2817L73.0143 68.6776ZM72.9145 69.11L72.178 68.619L72.1329 68.6866L72.1009 68.7613L72.9145 69.11ZM72.5819 69.4426L72.8619 70.2824L72.8968 70.2707L72.9306 70.2562L72.5819 69.4426ZM71.7172 69.0435L70.8698 69.2997L70.8956 69.3848L70.9378 69.4632L71.7172 69.0435ZM74.7106 58.3671L73.8839 58.0503L73.8805 58.0596L74.7106 58.3671ZM78.868 48.7218L79.6725 49.0911L79.673 49.0901L78.868 48.7218ZM82.5931 40.7727L83.3914 41.1553L84.0111 39.8625L82.5776 39.8876L82.5931 40.7727ZM78.8348 40.9723L78.9122 41.8541L78.9135 41.854L78.8348 40.9723ZM70.6196 42.0033L70.4613 41.1324L70.4597 41.1327L70.6196 42.0033ZM67.1939 42.6685L67.4738 43.5083L67.4985 43.5001L67.5226 43.4904L67.1939 42.6685ZM66.3956 42.2029L65.5315 42.3949L65.5372 42.4207L65.5445 42.4461L66.3956 42.2029ZM66.4622 41.704L67.1987 42.195L67.2156 42.1696L67.2307 42.1432L66.4622 41.704ZM66.8945 41.4046L67.0866 42.2688L67.2268 42.2376L67.35 42.1637L66.8945 41.4046ZM70.3868 40.7062L70.5436 41.5774L70.5505 41.5761L70.3868 40.7062ZM78.7683 39.6419L78.8442 40.5238L78.8472 40.5236L78.7683 39.6419ZM83.2583 39.4423V40.3275H83.8162L84.0569 39.8242L83.2583 39.4423ZM84.755 36.3492L85.5501 36.7383L85.5517 36.7349L84.755 36.3492ZM90.01 25.6395L90.8018 26.0354L90.803 26.033L90.01 25.6395ZM92.3715 20.9166L93.1453 21.3465L93.1547 21.3297L93.1633 21.3125L92.3715 20.9166ZM92.7373 20.584L92.9805 21.4352L93.0148 21.4254L93.0482 21.4129L92.7373 20.584ZM93.2695 20.6173L93.7087 19.8487L93.6874 19.8365L93.6654 19.8255L93.2695 20.6173ZM93.5688 21.0164L92.71 21.2311L92.7273 21.2999L92.7552 21.3651L93.5688 21.0164ZM93.5688 21.5153L94.3427 21.9452L94.3746 21.8877L94.3977 21.8261L93.5688 21.5153ZM85.9524 36.9146L85.1556 36.5288L85.1524 36.5356L85.9524 36.9146ZM84.7217 39.4423L83.93 39.0464L83.3005 40.3054L84.7079 40.3274L84.7217 39.4423ZM88.979 39.6751L88.8964 40.5565L88.9007 40.5569L88.979 39.6751ZM101.651 39.7084L101.746 40.5885L102.243 40.5349L102.454 40.0812L101.651 39.7084ZM104.278 34.1208L103.48 33.7379L103.479 33.7402L104.278 34.1208ZM110.298 21.7814L109.508 21.3834L109.507 21.3855L110.298 21.7814ZM112.993 16.4598L113.766 16.8897L113.776 16.8729L113.784 16.8557L112.993 16.4598ZM113.358 16.1272L113.602 16.9784L113.636 16.9686L113.669 16.9561L113.358 16.1272ZM113.891 16.1605L114.33 15.3919L114.308 15.3797L114.286 15.3687L113.891 16.1605ZM114.19 16.5596L113.331 16.7743L113.348 16.8431L113.376 16.9083L114.19 16.5596ZM114.157 17.0585L114.93 17.4884L114.94 17.4716L114.948 17.4544L114.157 17.0585ZM111.496 22.3468L110.704 21.9509L110.702 21.9552L111.496 22.3468ZM105.509 34.6529L104.712 34.2687L104.709 34.2744L105.509 34.6529ZM103.214 39.5421L102.412 39.1683L101.736 40.619L103.324 40.4205L103.214 39.5421ZM110.199 38.2117L109.984 37.3529L109.951 37.3612L109.919 37.3719L110.199 38.2117ZM110.698 38.2782L110.258 39.0468L110.302 39.0719L110.349 39.0919L110.698 38.2782ZM111.03 38.6441L111.889 38.4294L111.877 38.3805L111.859 38.3333L111.03 38.6441ZM110.964 39.1762L110.172 38.7804L110.16 38.8036L110.15 38.8275L110.964 39.1762ZM110.598 39.4756L110.383 38.6168L110.354 38.6242L110.325 38.6335L110.598 39.4756ZM102.549 40.939L102.444 40.06L101.954 40.1183L101.746 40.566L102.549 40.939ZM98.7574 49.3537L99.5672 49.7112L99.5687 49.7079L98.7574 49.3537ZM93.8017 61.7929L92.9623 61.5112L92.9589 61.522L93.8017 61.7929ZM91.8726 68.1122L91.0206 67.8719L91.0198 67.8747L91.8726 68.1122ZM90.1763 75.0635L89.3049 74.9079L89.3022 74.923L89.3 74.9383L90.1763 75.0635ZM90.01 76.3606L89.1285 76.2805L89.1248 76.3205V76.3606H90.01ZM90.01 76.7597H90.8953V75.6745L89.8322 75.8926L90.01 76.7597ZM88.7129 77.0258L87.9212 77.4217L88.2251 78.0295L88.8908 77.893L88.7129 77.0258ZM88.8127 75.13L87.9403 74.9796L87.9375 74.9963L87.9352 75.013L88.8127 75.13ZM89.3781 72.4027L88.5156 72.2037L88.5147 72.2072L89.3781 72.4027ZM90.5422 67.9459L89.6906 67.7041L89.6899 67.7068L90.5422 67.9459ZM92.5378 61.3937L91.6974 61.1154L91.6944 61.1247L92.5378 61.3937ZM97.4935 48.8881L96.6846 48.5286L96.6837 48.5306L97.4935 48.8881ZM100.986 41.1053L101.792 41.4706L102.421 40.0825L100.904 40.2239L100.986 41.1053ZM88.846 41.0055L88.7603 41.8866L88.7682 41.8873L88.846 41.0055ZM83.2908 40.3916C81.9148 43.2768 80.5831 46.1067 79.2957 48.8813L80.9016 49.6265C82.1863 46.8578 83.5154 44.0336 84.8888 41.1538L83.2908 40.3916ZM79.2957 48.8813C77.4299 52.9017 76.0343 56.1157 75.1146 58.516L76.7678 59.1495C77.6663 56.8047 79.0423 53.6328 80.9016 49.6266L79.2957 48.8813ZM75.1112 58.525C74.3774 60.5039 73.7966 62.1453 73.3704 63.4463L75.0529 63.9975C75.4693 62.7264 76.0415 61.1084 76.7712 59.1405L75.1112 58.525ZM73.3675 63.4554C72.967 64.7238 72.6731 65.7171 72.4898 66.4276L74.2041 66.87C74.3755 66.2057 74.6581 65.2478 75.0558 63.9885L73.3675 63.4554ZM72.4881 66.4341C72.311 67.1424 72.1907 67.6775 72.1394 68.0109L73.8892 68.2801C73.9266 68.037 74.028 67.5742 74.2057 66.8635L72.4881 66.4341ZM72.1314 68.0824C72.1197 68.2455 72.1125 68.3916 72.1125 68.5113C72.1125 68.5701 72.1141 68.6386 72.121 68.7075C72.1245 68.742 72.1383 68.9049 72.2226 69.0735L73.8061 68.2817C73.8301 68.3299 73.845 68.3712 73.854 68.3993C73.8632 68.4283 73.869 68.4525 73.8726 68.4693C73.8796 68.5017 73.882 68.5244 73.8827 68.5313C73.8835 68.5398 73.8835 68.5425 73.8833 68.5376C73.8831 68.5331 73.8829 68.5246 73.8829 68.5113C73.8829 68.4843 73.8838 68.4457 73.8862 68.3935C73.8885 68.3419 73.8922 68.2805 73.8973 68.2085L72.1314 68.0824ZM72.138 68.8028C72.1346 68.779 72.1341 68.7436 72.1435 68.7031C72.1527 68.6629 72.1679 68.6341 72.178 68.619L73.6511 69.601C73.858 69.2907 73.9443 68.9279 73.8906 68.5524L72.138 68.8028ZM72.1009 68.7613C72.1086 68.7434 72.1254 68.7138 72.1556 68.6836C72.1857 68.6535 72.2154 68.6366 72.2332 68.6289L72.9306 70.2562C73.2948 70.1002 73.5721 69.8228 73.7282 69.4587L72.1009 68.7613ZM72.302 68.6028C72.3246 68.5953 72.341 68.5923 72.3487 68.5912C72.3563 68.5901 72.3569 68.5906 72.3491 68.5906V70.3611C72.5089 70.3611 72.6848 70.3414 72.8619 70.2824L72.302 68.6028ZM72.3491 68.5906C72.3635 68.5906 72.3872 68.5927 72.4161 68.6015C72.4454 68.6103 72.4712 68.6233 72.4915 68.6372C72.5311 68.6643 72.5256 68.6776 72.4966 68.6238L70.9378 69.4632C71.2052 69.9598 71.6771 70.3611 72.3491 70.3611V68.5906ZM72.5645 68.7873C72.5667 68.7945 72.5512 68.7393 72.5544 68.5822C72.5575 68.4342 72.5761 68.235 72.6166 67.9774C72.6977 67.4619 72.8567 66.7723 73.1017 65.8983C73.591 64.1532 74.4017 61.7486 75.5406 58.6746L73.8805 58.0596C72.7356 61.1497 71.9055 63.6066 71.397 65.4203C71.1431 66.3257 70.964 67.0898 70.8677 67.7024C70.7784 68.2701 70.734 68.8505 70.8698 69.2997L72.5645 68.7873ZM75.5372 58.6838C76.4363 56.3375 77.813 53.1423 79.6725 49.0911L78.0635 48.3525C76.198 52.4167 74.8031 55.6517 73.884 58.0504L75.5372 58.6838ZM79.673 49.0901C80.8681 46.4786 82.1075 43.8337 83.3914 41.1553L81.7949 40.3901C80.5066 43.0776 79.2627 45.732 78.0631 48.3534L79.673 49.0901ZM82.5776 39.8876C81.2929 39.9102 80.0191 39.9778 78.7561 40.0905L78.9135 41.854C80.1339 41.745 81.3656 41.6796 82.6087 41.6578L82.5776 39.8876ZM78.7573 40.0904C75.46 40.3801 72.6925 40.7267 70.4613 41.1324L70.778 42.8743C72.937 42.4817 75.6463 42.141 78.9122 41.8541L78.7573 40.0904ZM70.4597 41.1327C69.3724 41.3324 68.5402 41.4882 67.9647 41.6C67.6775 41.6557 67.4506 41.7012 67.2864 41.7361C67.2049 41.7534 67.1339 41.7691 67.0767 41.7829C67.0438 41.7908 66.9491 41.813 66.8651 41.8466L67.5226 43.4904C67.4663 43.5129 67.4316 43.5185 67.4908 43.5042C67.5258 43.4958 67.5792 43.4838 67.6542 43.4679C67.8033 43.4362 68.0184 43.393 68.3022 43.3379C68.8687 43.2279 69.6939 43.0734 70.7795 42.874L70.4597 41.1327ZM66.9139 41.8287C66.9076 41.8308 66.9132 41.8285 66.9288 41.8254C66.9435 41.8225 66.9781 41.8165 67.0276 41.8165V43.587C67.2058 43.587 67.3631 43.5452 67.4738 43.5083L66.9139 41.8287ZM67.0276 41.8165C67.035 41.8165 67.0585 41.8178 67.0913 41.8287C67.1251 41.84 67.1564 41.8574 67.1814 41.8775L66.0755 43.26C66.3582 43.4862 66.6913 43.587 67.0276 43.587V41.8165ZM67.1814 41.8775C67.2035 41.8951 67.2214 41.9158 67.2339 41.9355C67.2459 41.9543 67.2482 41.9647 67.2468 41.9597L65.5445 42.4461C65.6321 42.7528 65.802 43.0412 66.0755 43.26L67.1814 41.8775ZM67.2598 42.0108C67.2554 41.991 67.2617 42.0059 67.2565 42.0455C67.2506 42.0893 67.2329 42.1437 67.1987 42.195L65.7256 41.2129C65.4682 41.599 65.4502 42.029 65.5315 42.3949L67.2598 42.0108ZM67.2307 42.1432C67.2108 42.178 67.1795 42.2137 67.1406 42.2406C67.1043 42.2657 67.0802 42.2702 67.0866 42.2688L66.7025 40.5405C66.298 40.6304 65.9243 40.861 65.6936 41.2648L67.2307 42.1432ZM67.35 42.1637C67.2483 42.2247 67.1647 42.2415 67.2312 42.2223C67.2572 42.2148 67.304 42.2026 67.3775 42.1854C67.5226 42.1513 67.7366 42.1057 68.0244 42.0482C68.5979 41.9335 69.4366 41.7767 70.5436 41.5774L70.23 39.835C69.1197 40.0348 68.2677 40.194 67.6771 40.3121C67.3829 40.371 67.1465 40.421 66.9728 40.4618C66.8869 40.4819 66.8073 40.502 66.7398 40.5215C66.7127 40.5293 66.5685 40.5679 66.4391 40.6456L67.35 42.1637ZM70.5505 41.5761C72.7508 41.1622 75.5131 40.8106 78.8442 40.5238L78.6923 38.7599C75.3271 39.0496 72.5017 39.4076 70.2231 39.8362L70.5505 41.5761ZM78.8472 40.5236C80.3063 40.3929 81.7766 40.3275 83.2583 40.3275V38.5571C81.7245 38.5571 80.2014 38.6248 78.6893 38.7602L78.8472 40.5236ZM84.0569 39.8242C84.5435 38.8067 85.0413 37.7781 85.5501 36.7383L83.9599 35.9601C83.4488 37.0045 82.9487 38.038 82.4597 39.0604L84.0569 39.8242ZM85.5517 36.7349C87.5907 32.5241 89.3406 28.9578 90.8018 26.0354L89.2183 25.2436C87.7526 28.1749 85.9992 31.7484 83.9583 35.9634L85.5517 36.7349ZM90.803 26.033C92.2756 23.0656 93.0477 21.5223 93.1453 21.3465L91.5977 20.4867C91.4736 20.7101 90.6714 22.3154 89.2171 25.246L90.803 26.033ZM93.1633 21.3125C93.1684 21.3022 93.1594 21.3241 93.1249 21.3555C93.0873 21.3896 93.0367 21.4192 92.9805 21.4352L92.4942 19.7329C92.0473 19.8605 91.7521 20.1761 91.5797 20.5208L93.1633 21.3125ZM93.0482 21.4129C93.0279 21.4205 92.9921 21.4287 92.9482 21.426C92.9053 21.4233 92.8789 21.4117 92.8736 21.4091L93.6654 19.8255C93.2795 19.6326 92.8463 19.5978 92.4265 19.7552L93.0482 21.4129ZM92.8303 21.3859C92.811 21.3748 92.7805 21.352 92.7526 21.3147C92.7249 21.2779 92.7136 21.2454 92.71 21.2311L94.4276 20.8017C94.3263 20.3963 94.0788 20.0602 93.7087 19.8487L92.8303 21.3859ZM92.7552 21.3651C92.742 21.3343 92.7335 21.2962 92.7335 21.2575C92.7335 21.2209 92.7411 21.2015 92.74 21.2045L94.3977 21.8261C94.5337 21.4634 94.5501 21.0588 94.3825 20.6677L92.7552 21.3651ZM92.795 21.0854C92.6718 21.3072 91.8705 22.8993 90.4156 25.8091L91.9992 26.6008C93.4712 23.6568 94.2441 22.1225 94.3427 21.9452L92.795 21.0854ZM90.4156 25.8091C88.95 28.7403 87.1966 32.3138 85.1556 36.5288L86.7491 37.3004C88.788 33.0895 90.538 29.5232 91.9992 26.6008L90.4156 25.8091ZM85.1524 36.5356C84.7559 37.3725 84.3485 38.2094 83.93 39.0464L85.5135 39.8382C85.9376 38.9901 86.3505 38.1418 86.7524 37.2935L85.1524 36.5356ZM84.7079 40.3274C86.1039 40.3492 87.5001 40.4256 88.8964 40.5565L89.0616 38.7938C87.6198 38.6586 86.1777 38.5797 84.7356 38.5572L84.7079 40.3274ZM88.9007 40.5569C93.6883 40.9819 97.9721 40.9953 101.746 40.5885L101.556 38.8283C97.924 39.2197 93.7598 39.2109 89.0573 38.7934L88.9007 40.5569ZM102.454 40.0812C103.317 38.2212 104.192 36.3613 105.078 34.5013L103.479 33.7402C102.591 35.6053 101.714 37.4704 100.848 39.3356L102.454 40.0812ZM105.077 34.5036C107.426 29.6059 109.43 25.4974 111.09 22.1773L109.507 21.3855C107.841 24.7173 105.832 28.8351 103.48 33.7379L105.077 34.5036ZM111.089 22.1794C112.783 18.8145 113.667 17.0684 113.766 16.8897L112.219 16.0299C112.096 16.2504 111.185 18.052 109.508 21.3834L111.089 22.1794ZM113.784 16.8557C113.789 16.8454 113.78 16.8673 113.746 16.8987C113.708 16.9328 113.658 16.9623 113.602 16.9784L113.115 15.2761C112.668 15.4037 112.373 15.7193 112.201 16.0639L113.784 16.8557ZM113.669 16.9561C113.649 16.9637 113.613 16.9719 113.569 16.9692C113.526 16.9665 113.5 16.9549 113.495 16.9523L114.286 15.3687C113.9 15.1758 113.467 15.141 113.048 15.2984L113.669 16.9561ZM113.451 16.9291C113.432 16.918 113.402 16.8952 113.374 16.8579C113.346 16.8211 113.335 16.7886 113.331 16.7743L115.049 16.3449C114.947 15.9395 114.7 15.6034 114.33 15.3919L113.451 16.9291ZM113.376 16.9083C113.355 16.8592 113.344 16.8001 113.348 16.7419C113.352 16.6877 113.366 16.6595 113.365 16.6626L114.948 17.4544C115.131 17.0891 115.191 16.6481 115.004 16.2109L113.376 16.9083ZM113.383 16.6286C113.26 16.8504 112.358 18.6427 110.704 21.9509L112.288 22.7427C113.959 19.3989 114.832 17.6657 114.93 17.4884L113.383 16.6286ZM110.702 21.9552C109.06 25.2844 107.063 29.3891 104.712 34.2687L106.307 35.0371C108.656 30.1605 110.651 26.0611 112.29 22.7384L110.702 21.9552ZM104.709 34.2744C103.932 35.9168 103.166 37.5481 102.412 39.1683L104.017 39.9158C104.77 38.2988 105.534 36.6707 106.309 35.0314L104.709 34.2744ZM103.324 40.4205C106.527 40.0202 108.928 39.5685 110.479 39.0515L109.919 37.3719C108.543 37.8305 106.288 38.2658 103.104 38.6637L103.324 40.4205ZM110.413 39.0705C110.403 39.073 110.377 39.0775 110.339 39.0725C110.302 39.0675 110.274 39.0555 110.258 39.0468L111.137 37.5096C110.778 37.3049 110.377 37.2546 109.984 37.3529L110.413 39.0705ZM110.349 39.0919C110.313 39.0764 110.274 39.0502 110.242 39.015C110.212 38.9816 110.202 38.9557 110.201 38.9549L111.859 38.3333C111.719 37.9601 111.452 37.6382 111.046 37.4646L110.349 39.0919ZM110.171 38.8588C110.168 38.8439 110.166 38.8226 110.168 38.8004C110.171 38.7792 110.176 38.7717 110.172 38.7804L111.755 39.5721C111.93 39.223 111.989 38.8297 111.889 38.4294L110.171 38.8588ZM110.15 38.8275C110.169 38.7839 110.205 38.729 110.262 38.6824C110.317 38.6373 110.365 38.6212 110.383 38.6168L110.813 40.3344C111.233 40.2293 111.592 39.9578 111.777 39.5249L110.15 38.8275ZM110.325 38.6335C108.772 39.1371 106.163 39.6173 102.444 40.06L102.654 41.818C106.385 41.3738 109.142 40.8783 110.871 40.3176L110.325 38.6335ZM101.746 40.566C100.435 43.3882 99.1684 46.1993 97.9461 48.9996L99.5687 49.7079C100.785 46.9205 102.046 44.1218 103.352 41.312L101.746 40.566ZM97.9475 48.9962C95.7685 53.9323 94.1051 58.1058 92.9624 61.5113L94.6409 62.0744C95.7599 58.7393 97.4002 54.62 99.5672 49.7112L97.9475 48.9962ZM92.9589 61.522C92.1587 64.0114 91.5123 66.1287 91.0206 67.8719L92.7246 68.3525C93.2085 66.6367 93.8481 64.5411 94.6444 62.0637L92.9589 61.522ZM91.0198 67.8747C90.5304 69.6323 90.15 71.0862 89.8801 72.2332L91.6034 72.6387C91.8657 71.5241 92.2392 70.0955 92.7254 68.3497L91.0198 67.8747ZM89.8801 72.2332C89.6128 73.369 89.42 74.2633 89.3049 74.9079L91.0478 75.2191C91.1544 74.622 91.3385 73.7646 91.6034 72.6387L89.8801 72.2332ZM89.3 74.9383C89.2115 75.5581 89.1529 76.0112 89.1285 76.2805L90.8916 76.4408C90.9115 76.2222 90.9638 75.8106 91.0527 75.1887L89.3 74.9383ZM89.1248 76.3606C89.1248 76.3611 89.1248 76.3617 89.1248 76.3622C89.1248 76.3627 89.1248 76.3632 89.1248 76.3637C89.1248 76.3643 89.1248 76.3648 89.1248 76.3653C89.1248 76.3658 89.1248 76.3663 89.1248 76.3668C89.1248 76.3674 89.1248 76.3679 89.1248 76.3684C89.1248 76.3689 89.1248 76.3694 89.1248 76.3699C89.1248 76.3704 89.1248 76.371 89.1248 76.3715C89.1248 76.372 89.1248 76.3725 89.1248 76.373C89.1248 76.3735 89.1248 76.374 89.1248 76.3745C89.1248 76.3751 89.1248 76.3756 89.1248 76.3761C89.1248 76.3766 89.1248 76.3771 89.1248 76.3776C89.1248 76.3781 89.1248 76.3786 89.1248 76.3791C89.1248 76.3796 89.1248 76.3801 89.1248 76.3807C89.1248 76.3812 89.1248 76.3817 89.1248 76.3822C89.1248 76.3827 89.1248 76.3832 89.1248 76.3837C89.1248 76.3842 89.1248 76.3847 89.1248 76.3852C89.1248 76.3857 89.1248 76.3862 89.1248 76.3867C89.1248 76.3872 89.1248 76.3877 89.1248 76.3882C89.1248 76.3887 89.1248 76.3892 89.1248 76.3897C89.1248 76.3902 89.1248 76.3907 89.1248 76.3912C89.1248 76.3917 89.1248 76.3922 89.1248 76.3927C89.1248 76.3932 89.1248 76.3937 89.1248 76.3942C89.1248 76.3947 89.1248 76.3952 89.1248 76.3957C89.1248 76.3962 89.1248 76.3967 89.1248 76.3972C89.1248 76.3977 89.1248 76.3982 89.1248 76.3987C89.1248 76.3992 89.1248 76.3997 89.1248 76.4002C89.1248 76.4007 89.1248 76.4012 89.1248 76.4017C89.1248 76.4022 89.1248 76.4027 89.1248 76.4032C89.1248 76.4037 89.1248 76.4042 89.1248 76.4047C89.1248 76.4052 89.1248 76.4056 89.1248 76.4061C89.1248 76.4066 89.1248 76.4071 89.1248 76.4076C89.1248 76.4081 89.1248 76.4086 89.1248 76.4091C89.1248 76.4096 89.1248 76.4101 89.1248 76.4105C89.1248 76.411 89.1248 76.4115 89.1248 76.412C89.1248 76.4125 89.1248 76.413 89.1248 76.4135C89.1248 76.414 89.1248 76.4145 89.1248 76.4149C89.1248 76.4154 89.1248 76.4159 89.1248 76.4164C89.1248 76.4169 89.1248 76.4174 89.1248 76.4178C89.1248 76.4183 89.1248 76.4188 89.1248 76.4193C89.1248 76.4198 89.1248 76.4203 89.1248 76.4207C89.1248 76.4212 89.1248 76.4217 89.1248 76.4222C89.1248 76.4227 89.1248 76.4232 89.1248 76.4236C89.1248 76.4241 89.1248 76.4246 89.1248 76.4251C89.1248 76.4256 89.1248 76.426 89.1248 76.4265C89.1248 76.427 89.1248 76.4275 89.1248 76.428C89.1248 76.4284 89.1248 76.4289 89.1248 76.4294C89.1248 76.4299 89.1248 76.4303 89.1248 76.4308C89.1248 76.4313 89.1248 76.4318 89.1248 76.4322C89.1248 76.4327 89.1248 76.4332 89.1248 76.4337C89.1248 76.4341 89.1248 76.4346 89.1248 76.4351C89.1248 76.4356 89.1248 76.436 89.1248 76.4365C89.1248 76.437 89.1248 76.4374 89.1248 76.4379C89.1248 76.4384 89.1248 76.4389 89.1248 76.4393C89.1248 76.4398 89.1248 76.4403 89.1248 76.4407C89.1248 76.4412 89.1248 76.4417 89.1248 76.4421C89.1248 76.4426 89.1248 76.4431 89.1248 76.4436C89.1248 76.444 89.1248 76.4445 89.1248 76.445C89.1248 76.4454 89.1248 76.4459 89.1248 76.4464C89.1248 76.4468 89.1248 76.4473 89.1248 76.4477C89.1248 76.4482 89.1248 76.4487 89.1248 76.4491C89.1248 76.4496 89.1248 76.4501 89.1248 76.4505C89.1248 76.451 89.1248 76.4515 89.1248 76.4519C89.1248 76.4524 89.1248 76.4528 89.1248 76.4533C89.1248 76.4538 89.1248 76.4542 89.1248 76.4547C89.1248 76.4551 89.1248 76.4556 89.1248 76.4561C89.1248 76.4565 89.1248 76.457 89.1248 76.4574C89.1248 76.4579 89.1248 76.4584 89.1248 76.4588C89.1248 76.4593 89.1248 76.4597 89.1248 76.4602C89.1248 76.4606 89.1248 76.4611 89.1248 76.4616C89.1248 76.462 89.1248 76.4625 89.1248 76.4629C89.1248 76.4634 89.1248 76.4638 89.1248 76.4643C89.1248 76.4647 89.1248 76.4652 89.1248 76.4656C89.1248 76.4661 89.1248 76.4665 89.1248 76.467C89.1248 76.4674 89.1248 76.4679 89.1248 76.4683C89.1248 76.4688 89.1248 76.4692 89.1248 76.4697C89.1248 76.4701 89.1248 76.4706 89.1248 76.471C89.1248 76.4715 89.1248 76.4719 89.1248 76.4724C89.1248 76.4728 89.1248 76.4733 89.1248 76.4737C89.1248 76.4742 89.1248 76.4746 89.1248 76.4751C89.1248 76.4755 89.1248 76.476 89.1248 76.4764C89.1248 76.4769 89.1248 76.4773 89.1248 76.4777C89.1248 76.4782 89.1248 76.4786 89.1248 76.4791C89.1248 76.4795 89.1248 76.48 89.1248 76.4804C89.1248 76.4808 89.1248 76.4813 89.1248 76.4817C89.1248 76.4822 89.1248 76.4826 89.1248 76.4831C89.1248 76.4835 89.1248 76.4839 89.1248 76.4844C89.1248 76.4848 89.1248 76.4853 89.1248 76.4857C89.1248 76.4861 89.1248 76.4866 89.1248 76.487C89.1248 76.4874 89.1248 76.4879 89.1248 76.4883C89.1248 76.4888 89.1248 76.4892 89.1248 76.4896C89.1248 76.4901 89.1248 76.4905 89.1248 76.4909C89.1248 76.4914 89.1248 76.4918 89.1248 76.4922C89.1248 76.4927 89.1248 76.4931 89.1248 76.4935C89.1248 76.494 89.1248 76.4944 89.1248 76.4948C89.1248 76.4953 89.1248 76.4957 89.1248 76.4961C89.1248 76.4966 89.1248 76.497 89.1248 76.4974C89.1248 76.4979 89.1248 76.4983 89.1248 76.4987C89.1248 76.4991 89.1248 76.4996 89.1248 76.5C89.1248 76.5004 89.1248 76.5009 89.1248 76.5013C89.1248 76.5017 89.1248 76.5021 89.1248 76.5026C89.1248 76.503 89.1248 76.5034 89.1248 76.5038C89.1248 76.5043 89.1248 76.5047 89.1248 76.5051C89.1248 76.5055 89.1248 76.506 89.1248 76.5064C89.1248 76.5068 89.1248 76.5072 89.1248 76.5077C89.1248 76.5081 89.1248 76.5085 89.1248 76.5089C89.1248 76.5094 89.1248 76.5098 89.1248 76.5102C89.1248 76.5106 89.1248 76.511 89.1248 76.5115C89.1248 76.5119 89.1248 76.5123 89.1248 76.5127C89.1248 76.5131 89.1248 76.5136 89.1248 76.514C89.1248 76.5144 89.1248 76.5148 89.1248 76.5152C89.1248 76.5156 89.1248 76.5161 89.1248 76.5165C89.1248 76.5169 89.1248 76.5173 89.1248 76.5177C89.1248 76.5181 89.1248 76.5186 89.1248 76.519C89.1248 76.5194 89.1248 76.5198 89.1248 76.5202C89.1248 76.5206 89.1248 76.521 89.1248 76.5215C89.1248 76.5219 89.1248 76.5223 89.1248 76.5227C89.1248 76.5231 89.1248 76.5235 89.1248 76.5239C89.1248 76.5243 89.1248 76.5247 89.1248 76.5252C89.1248 76.5256 89.1248 76.526 89.1248 76.5264C89.1248 76.5268 89.1248 76.5272 89.1248 76.5276C89.1248 76.528 89.1248 76.5284 89.1248 76.5288C89.1248 76.5292 89.1248 76.5296 89.1248 76.5301C89.1248 76.5305 89.1248 76.5309 89.1248 76.5313C89.1248 76.5317 89.1248 76.5321 89.1248 76.5325C89.1248 76.5329 89.1248 76.5333 89.1248 76.5337C89.1248 76.5341 89.1248 76.5345 89.1248 76.5349C89.1248 76.5353 89.1248 76.5357 89.1248 76.5361C89.1248 76.5365 89.1248 76.5369 89.1248 76.5373C89.1248 76.5377 89.1248 76.5381 89.1248 76.5385C89.1248 76.5389 89.1248 76.5393 89.1248 76.5397C89.1248 76.5401 89.1248 76.5405 89.1248 76.5409C89.1248 76.5413 89.1248 76.5417 89.1248 76.5421C89.1248 76.5425 89.1248 76.5429 89.1248 76.5433C89.1248 76.5437 89.1248 76.5441 89.1248 76.5445C89.1248 76.5449 89.1248 76.5453 89.1248 76.5457C89.1248 76.5461 89.1248 76.5464 89.1248 76.5468C89.1248 76.5472 89.1248 76.5476 89.1248 76.548C89.1248 76.5484 89.1248 76.5488 89.1248 76.5492C89.1248 76.5496 89.1248 76.55 89.1248 76.5504C89.1248 76.5508 89.1248 76.5511 89.1248 76.5515C89.1248 76.5519 89.1248 76.5523 89.1248 76.5527C89.1248 76.5531 89.1248 76.5535 89.1248 76.5539C89.1248 76.5543 89.1248 76.5546 89.1248 76.555C89.1248 76.5554 89.1248 76.5558 89.1248 76.5562C89.1248 76.5566 89.1248 76.557 89.1248 76.5573C89.1248 76.5577 89.1248 76.5581 89.1248 76.5585C89.1248 76.5589 89.1248 76.5593 89.1248 76.5596C89.1248 76.56 89.1248 76.5604 89.1248 76.5608C89.1248 76.5612 89.1248 76.5616 89.1248 76.5619C89.1248 76.5623 89.1248 76.5627 89.1248 76.5631C89.1248 76.5635 89.1248 76.5638 89.1248 76.5642C89.1248 76.5646 89.1248 76.565 89.1248 76.5654C89.1248 76.5657 89.1248 76.5661 89.1248 76.5665C89.1248 76.5669 89.1248 76.5672 89.1248 76.5676C89.1248 76.568 89.1248 76.5684 89.1248 76.5687C89.1248 76.5691 89.1248 76.5695 89.1248 76.5699C89.1248 76.5702 89.1248 76.5706 89.1248 76.571C89.1248 76.5714 89.1248 76.5717 89.1248 76.5721C89.1248 76.5725 89.1248 76.5729 89.1248 76.5732C89.1248 76.5736 89.1248 76.574 89.1248 76.5743C89.1248 76.5747 89.1248 76.5751 89.1248 76.5755C89.1248 76.5758 89.1248 76.5762 89.1248 76.5766C89.1248 76.5769 89.1248 76.5773 89.1248 76.5777C89.1248 76.578 89.1248 76.5784 89.1248 76.5788C89.1248 76.5791 89.1248 76.5795 89.1248 76.5799C89.1248 76.5802 89.1248 76.5806 89.1248 76.581C89.1248 76.5813 89.1248 76.5817 89.1248 76.5821C89.1248 76.5824 89.1248 76.5828 89.1248 76.5832C89.1248 76.5835 89.1248 76.5839 89.1248 76.5842C89.1248 76.5846 89.1248 76.585 89.1248 76.5853C89.1248 76.5857 89.1248 76.586 89.1248 76.5864C89.1248 76.5868 89.1248 76.5871 89.1248 76.5875C89.1248 76.5878 89.1248 76.5882 89.1248 76.5886C89.1248 76.5889 89.1248 76.5893 89.1248 76.5896C89.1248 76.59 89.1248 76.5904 89.1248 76.5907C89.1248 76.5911 89.1248 76.5914 89.1248 76.5918C89.1248 76.5921 89.1248 76.5925 89.1248 76.5928C89.1248 76.5932 89.1248 76.5936 89.1248 76.5939C89.1248 76.5943 89.1248 76.5946 89.1248 76.595C89.1248 76.5953 89.1248 76.5957 89.1248 76.596C89.1248 76.5964 89.1248 76.5967 89.1248 76.5971C89.1248 76.5974 89.1248 76.5978 89.1248 76.5981C89.1248 76.5985 89.1248 76.5988 89.1248 76.5992C89.1248 76.5995 89.1248 76.5999 89.1248 76.6002C89.1248 76.6006 89.1248 76.6009 89.1248 76.6013C89.1248 76.6016 89.1248 76.602 89.1248 76.6023C89.1248 76.6027 89.1248 76.603 89.1248 76.6034C89.1248 76.6037 89.1248 76.6041 89.1248 76.6044C89.1248 76.6047 89.1248 76.6051 89.1248 76.6054C89.1248 76.6058 89.1248 76.6061 89.1248 76.6065C89.1248 76.6068 89.1248 76.6071 89.1248 76.6075C89.1248 76.6078 89.1248 76.6082 89.1248 76.6085C89.1248 76.6089 89.1248 76.6092 89.1248 76.6095C89.1248 76.6099 89.1248 76.6102 89.1248 76.6106C89.1248 76.6109 89.1248 76.6112 89.1248 76.6116C89.1248 76.6119 89.1248 76.6122 89.1248 76.6126C89.1248 76.6129 89.1248 76.6133 89.1248 76.6136C89.1248 76.6139 89.1248 76.6143 89.1248 76.6146C89.1248 76.6149 89.1248 76.6153 89.1248 76.6156C89.1248 76.6159 89.1248 76.6163 89.1248 76.6166C89.1248 76.6169 89.1248 76.6173 89.1248 76.6176C89.1248 76.6179 89.1248 76.6183 89.1248 76.6186C89.1248 76.6189 89.1248 76.6193 89.1248 76.6196C89.1248 76.6199 89.1248 76.6203 89.1248 76.6206C89.1248 76.6209 89.1248 76.6212 89.1248 76.6216C89.1248 76.6219 89.1248 76.6222 89.1248 76.6226C89.1248 76.6229 89.1248 76.6232 89.1248 76.6235C89.1248 76.6239 89.1248 76.6242 89.1248 76.6245C89.1248 76.6248 89.1248 76.6252 89.1248 76.6255C89.1248 76.6258 89.1248 76.6261 89.1248 76.6265C89.1248 76.6268 89.1248 76.6271 89.1248 76.6274C89.1248 76.6278 89.1248 76.6281 89.1248 76.6284C89.1248 76.6287 89.1248 76.6291 89.1248 76.6294C89.1248 76.6297 89.1248 76.63 89.1248 76.6303C89.1248 76.6307 89.1248 76.631 89.1248 76.6313C89.1248 76.6316 89.1248 76.6319 89.1248 76.6323C89.1248 76.6326 89.1248 76.6329 89.1248 76.6332C89.1248 76.6335 89.1248 76.6339 89.1248 76.6342C89.1248 76.6345 89.1248 76.6348 89.1248 76.6351C89.1248 76.6354 89.1248 76.6357 89.1248 76.6361C89.1248 76.6364 89.1248 76.6367 89.1248 76.637C89.1248 76.6373 89.1248 76.6376 89.1248 76.6379C89.1248 76.6383 89.1248 76.6386 89.1248 76.6389C89.1248 76.6392 89.1248 76.6395 89.1248 76.6398C89.1248 76.6401 89.1248 76.6404 89.1248 76.6408C89.1248 76.6411 89.1248 76.6414 89.1248 76.6417C89.1248 76.642 89.1248 76.6423 89.1248 76.6426C89.1248 76.6429 89.1248 76.6432 89.1248 76.6435C89.1248 76.6438 89.1248 76.6441 89.1248 76.6445C89.1248 76.6448 89.1248 76.6451 89.1248 76.6454C89.1248 76.6457 89.1248 76.646 89.1248 76.6463C89.1248 76.6466 89.1248 76.6469 89.1248 76.6472C89.1248 76.6475 89.1248 76.6478 89.1248 76.6481C89.1248 76.6484 89.1248 76.6487 89.1248 76.649C89.1248 76.6493 89.1248 76.6496 89.1248 76.6499C89.1248 76.6502 89.1248 76.6505 89.1248 76.6508C89.1248 76.6511 89.1248 76.6514 89.1248 76.6517C89.1248 76.652 89.1248 76.6523 89.1248 76.6526C89.1248 76.6529 89.1248 76.6532 89.1248 76.6535C89.1248 76.6538 89.1248 76.6541 89.1248 76.6544C89.1248 76.6547 89.1248 76.655 89.1248 76.6553C89.1248 76.6556 89.1248 76.6559 89.1248 76.6562C89.1248 76.6565 89.1248 76.6568 89.1248 76.6571C89.1248 76.6574 89.1248 76.6576 89.1248 76.6579C89.1248 76.6582 89.1248 76.6585 89.1248 76.6588C89.1248 76.6591 89.1248 76.6594 89.1248 76.6597C89.1248 76.66 89.1248 76.6603 89.1248 76.6606C89.1248 76.6608 89.1248 76.6611 89.1248 76.6614C89.1248 76.6617 89.1248 76.662 89.1248 76.6623C89.1248 76.6626 89.1248 76.6629 89.1248 76.6632C89.1248 76.6634 89.1248 76.6637 89.1248 76.664C89.1248 76.6643 89.1248 76.6646 89.1248 76.6649C89.1248 76.6652 89.1248 76.6654 89.1248 76.6657C89.1248 76.666 89.1248 76.6663 89.1248 76.6666C89.1248 76.6669 89.1248 76.6671 89.1248 76.6674C89.1248 76.6677 89.1248 76.668 89.1248 76.6683C89.1248 76.6686 89.1248 76.6688 89.1248 76.6691C89.1248 76.6694 89.1248 76.6697 89.1248 76.67C89.1248 76.6702 89.1248 76.6705 89.1248 76.6708C89.1248 76.6711 89.1248 76.6714 89.1248 76.6716C89.1248 76.6719 89.1248 76.6722 89.1248 76.6725C89.1248 76.6727 89.1248 76.673 89.1248 76.6733C89.1248 76.6736 89.1248 76.6738 89.1248 76.6741C89.1248 76.6744 89.1248 76.6747 89.1248 76.6749C89.1248 76.6752 89.1248 76.6755 89.1248 76.6758C89.1248 76.676 89.1248 76.6763 89.1248 76.6766C89.1248 76.6769 89.1248 76.6771 89.1248 76.6774C89.1248 76.6777 89.1248 76.6779 89.1248 76.6782C89.1248 76.6785 89.1248 76.6787 89.1248 76.679C89.1248 76.6793 89.1248 76.6796 89.1248 76.6798C89.1248 76.6801 89.1248 76.6804 89.1248 76.6806C89.1248 76.6809 89.1248 76.6812 89.1248 76.6814C89.1248 76.6817 89.1248 76.682 89.1248 76.6822C89.1248 76.6825 89.1248 76.6828 89.1248 76.683C89.1248 76.6833 89.1248 76.6836 89.1248 76.6838C89.1248 76.6841 89.1248 76.6843 89.1248 76.6846C89.1248 76.6849 89.1248 76.6851 89.1248 76.6854C89.1248 76.6857 89.1248 76.6859 89.1248 76.6862C89.1248 76.6864 89.1248 76.6867 89.1248 76.687C89.1248 76.6872 89.1248 76.6875 89.1248 76.6877C89.1248 76.688 89.1248 76.6883 89.1248 76.6885C89.1248 76.6888 89.1248 76.689 89.1248 76.6893C89.1248 76.6895 89.1248 76.6898 89.1248 76.6901C89.1248 76.6903 89.1248 76.6906 89.1248 76.6908C89.1248 76.6911 89.1248 76.6913 89.1248 76.6916C89.1248 76.6918 89.1248 76.6921 89.1248 76.6924C89.1248 76.6926 89.1248 76.6929 89.1248 76.6931C89.1248 76.6934 89.1248 76.6936 89.1248 76.6939C89.1248 76.6941 89.1248 76.6944 89.1248 76.6946C89.1248 76.6949 89.1248 76.6951 89.1248 76.6954C89.1248 76.6956 89.1248 76.6959 89.1248 76.6961C89.1248 76.6964 89.1248 76.6966 89.1248 76.6969C89.1248 76.6971 89.1248 76.6974 89.1248 76.6976C89.1248 76.6979 89.1248 76.6981 89.1248 76.6983C89.1248 76.6986 89.1248 76.6988 89.1248 76.6991C89.1248 76.6993 89.1248 76.6996 89.1248 76.6998C89.1248 76.7001 89.1248 76.7003 89.1248 76.7006C89.1248 76.7008 89.1248 76.701 89.1248 76.7013C89.1248 76.7015 89.1248 76.7018 89.1248 76.702C89.1248 76.7022 89.1248 76.7025 89.1248 76.7027C89.1248 76.703 89.1248 76.7032 89.1248 76.7034C89.1248 76.7037 89.1248 76.7039 89.1248 76.7042C89.1248 76.7044 89.1248 76.7046 89.1248 76.7049C89.1248 76.7051 89.1248 76.7054 89.1248 76.7056C89.1248 76.7058 89.1248 76.7061 89.1248 76.7063C89.1248 76.7065 89.1248 76.7068 89.1248 76.707C89.1248 76.7072 89.1248 76.7075 89.1248 76.7077C89.1248 76.7079 89.1248 76.7082 89.1248 76.7084C89.1248 76.7086 89.1248 76.7089 89.1248 76.7091C89.1248 76.7093 89.1248 76.7096 89.1248 76.7098C89.1248 76.71 89.1248 76.7103 89.1248 76.7105C89.1248 76.7107 89.1248 76.711 89.1248 76.7112C89.1248 76.7114 89.1248 76.7116 89.1248 76.7119C89.1248 76.7121 89.1248 76.7123 89.1248 76.7126C89.1248 76.7128 89.1248 76.713 89.1248 76.7132C89.1248 76.7135 89.1248 76.7137 89.1248 76.7139C89.1248 76.7141 89.1248 76.7144 89.1248 76.7146C89.1248 76.7148 89.1248 76.715 89.1248 76.7153C89.1248 76.7155 89.1248 76.7157 89.1248 76.7159C89.1248 76.7162 89.1248 76.7164 89.1248 76.7166C89.1248 76.7168 89.1248 76.717 89.1248 76.7173C89.1248 76.7175 89.1248 76.7177 89.1248 76.7179C89.1248 76.7182 89.1248 76.7184 89.1248 76.7186C89.1248 76.7188 89.1248 76.719 89.1248 76.7192C89.1248 76.7195 89.1248 76.7197 89.1248 76.7199C89.1248 76.7201 89.1248 76.7203 89.1248 76.7205C89.1248 76.7208 89.1248 76.721 89.1248 76.7212C89.1248 76.7214 89.1248 76.7216 89.1248 76.7218C89.1248 76.7221 89.1248 76.7223 89.1248 76.7225C89.1248 76.7227 89.1248 76.7229 89.1248 76.7231C89.1248 76.7233 89.1248 76.7235 89.1248 76.7238C89.1248 76.724 89.1248 76.7242 89.1248 76.7244C89.1248 76.7246 89.1248 76.7248 89.1248 76.725C89.1248 76.7252 89.1248 76.7254 89.1248 76.7257C89.1248 76.7259 89.1248 76.7261 89.1248 76.7263C89.1248 76.7265 89.1248 76.7267 89.1248 76.7269C89.1248 76.7271 89.1248 76.7273 89.1248 76.7275C89.1248 76.7277 89.1248 76.7279 89.1248 76.7281C89.1248 76.7283 89.1248 76.7285 89.1248 76.7288C89.1248 76.729 89.1248 76.7292 89.1248 76.7294C89.1248 76.7296 89.1248 76.7298 89.1248 76.73C89.1248 76.7302 89.1248 76.7304 89.1248 76.7306C89.1248 76.7308 89.1248 76.731 89.1248 76.7312C89.1248 76.7314 89.1248 76.7316 89.1248 76.7318C89.1248 76.732 89.1248 76.7322 89.1248 76.7324C89.1248 76.7326 89.1248 76.7328 89.1248 76.733C89.1248 76.7332 89.1248 76.7334 89.1248 76.7336C89.1248 76.7338 89.1248 76.734 89.1248 76.7342C89.1248 76.7343 89.1248 76.7345 89.1248 76.7347C89.1248 76.7349 89.1248 76.7351 89.1248 76.7353C89.1248 76.7355 89.1248 76.7357 89.1248 76.7359C89.1248 76.7361 89.1248 76.7363 89.1248 76.7365C89.1248 76.7367 89.1248 76.7369 89.1248 76.7371C89.1248 76.7372 89.1248 76.7374 89.1248 76.7376C89.1248 76.7378 89.1248 76.738 89.1248 76.7382C89.1248 76.7384 89.1248 76.7386 89.1248 76.7388C89.1248 76.739 89.1248 76.7391 89.1248 76.7393C89.1248 76.7395 89.1248 76.7397 89.1248 76.7399C89.1248 76.7401 89.1248 76.7403 89.1248 76.7404C89.1248 76.7406 89.1248 76.7408 89.1248 76.741C89.1248 76.7412 89.1248 76.7414 89.1248 76.7416C89.1248 76.7417 89.1248 76.7419 89.1248 76.7421C89.1248 76.7423 89.1248 76.7425 89.1248 76.7427C89.1248 76.7428 89.1248 76.743 89.1248 76.7432C89.1248 76.7434 89.1248 76.7436 89.1248 76.7437C89.1248 76.7439 89.1248 76.7441 89.1248 76.7443C89.1248 76.7445 89.1248 76.7446 89.1248 76.7448C89.1248 76.745 89.1248 76.7452 89.1248 76.7453C89.1248 76.7455 89.1248 76.7457 89.1248 76.7459C89.1248 76.7461 89.1248 76.7462 89.1248 76.7464C89.1248 76.7466 89.1248 76.7468 89.1248 76.7469C89.1248 76.7471 89.1248 76.7473 89.1248 76.7475C89.1248 76.7476 89.1248 76.7478 89.1248 76.748C89.1248 76.7481 89.1248 76.7483 89.1248 76.7485C89.1248 76.7487 89.1248 76.7488 89.1248 76.749C89.1248 76.7492 89.1248 76.7493 89.1248 76.7495C89.1248 76.7497 89.1248 76.7499 89.1248 76.75C89.1248 76.7502 89.1248 76.7504 89.1248 76.7505C89.1248 76.7507 89.1248 76.7509 89.1248 76.751C89.1248 76.7512 89.1248 76.7514 89.1248 76.7515C89.1248 76.7517 89.1248 76.7519 89.1248 76.752C89.1248 76.7522 89.1248 76.7524 89.1248 76.7525C89.1248 76.7527 89.1248 76.7528 89.1248 76.753C89.1248 76.7532 89.1248 76.7533 89.1248 76.7535C89.1248 76.7537 89.1248 76.7538 89.1248 76.754C89.1248 76.7541 89.1248 76.7543 89.1248 76.7545C89.1248 76.7546 89.1248 76.7548 89.1248 76.755C89.1248 76.7551 89.1248 76.7553 89.1248 76.7554C89.1248 76.7556 89.1248 76.7557 89.1248 76.7559C89.1248 76.7561 89.1248 76.7562 89.1248 76.7564C89.1248 76.7565 89.1248 76.7567 89.1248 76.7568C89.1248 76.757 89.1248 76.7572 89.1248 76.7573C89.1248 76.7575 89.1248 76.7576 89.1248 76.7578C89.1248 76.7579 89.1248 76.7581 89.1248 76.7582C89.1248 76.7584 89.1248 76.7585 89.1248 76.7587C89.1248 76.7588 89.1248 76.759 89.1248 76.7591C89.1248 76.7593 89.1248 76.7594 89.1248 76.7596C89.1248 76.7597 89.1248 76.7599 89.1248 76.76C89.1248 76.7602 89.1248 76.7603 89.1248 76.7605C89.1248 76.7606 89.1248 76.7608 89.1248 76.7609C89.1248 76.7611 89.1248 76.7612 89.1248 76.7614C89.1248 76.7615 89.1248 76.7617 89.1248 76.7618C89.1248 76.762 89.1248 76.7621 89.1248 76.7623C89.1248 76.7624 89.1248 76.7625 89.1248 76.7627C89.1248 76.7628 89.1248 76.763 89.1248 76.7631C89.1248 76.7633 89.1248 76.7634 89.1248 76.7635C89.1248 76.7637 89.1248 76.7638 89.1248 76.764C89.1248 76.7641 89.1248 76.7643 89.1248 76.7644C89.1248 76.7645 89.1248 76.7647 89.1248 76.7648C89.1248 76.7649 89.1248 76.7651 89.1248 76.7652C89.1248 76.7654 89.1248 76.7655 89.1248 76.7656C89.1248 76.7658 89.1248 76.7659 89.1248 76.766C89.1248 76.7662 89.1248 76.7663 89.1248 76.7665C89.1248 76.7666 89.1248 76.7667 89.1248 76.7669C89.1248 76.767 89.1248 76.7671 89.1248 76.7673C89.1248 76.7674 89.1248 76.7675 89.1248 76.7677C89.1248 76.7678 89.1248 76.7679 89.1248 76.7681C89.1248 76.7682 89.1248 76.7683 89.1248 76.7685C89.1248 76.7686 89.1248 76.7687 89.1248 76.7688C89.1248 76.769 89.1248 76.7691 89.1248 76.7692C89.1248 76.7694 89.1248 76.7695 89.1248 76.7696C89.1248 76.7697 89.1248 76.7699 89.1248 76.77C89.1248 76.7701 89.1248 76.7703 89.1248 76.7704C89.1248 76.7705 89.1248 76.7706 89.1248 76.7708C89.1248 76.7709 89.1248 76.771 89.1248 76.7711C89.1248 76.7713 89.1248 76.7714 89.1248 76.7715C89.1248 76.7716 89.1248 76.7717 89.1248 76.7719C89.1248 76.772 89.1248 76.7721 89.1248 76.7722C89.1248 76.7724 89.1248 76.7725 89.1248 76.7726C89.1248 76.7727 89.1248 76.7728 89.1248 76.773C89.1248 76.7731 89.1248 76.7732 89.1248 76.7733C89.1248 76.7734 89.1248 76.7736 89.1248 76.7737C89.1248 76.7738 89.1248 76.7739 89.1248 76.774C89.1248 76.7741 89.1248 76.7743 89.1248 76.7744C89.1248 76.7745 89.1248 76.7746 89.1248 76.7747C89.1248 76.7748 89.1248 76.7749 89.1248 76.7751C89.1248 76.7752 89.1248 76.7753 89.1248 76.7754C89.1248 76.7755 89.1248 76.7756 89.1248 76.7757C89.1248 76.7759 89.1248 76.776 89.1248 76.7761C89.1248 76.7762 89.1248 76.7763 89.1248 76.7764C89.1248 76.7765 89.1248 76.7766 89.1248 76.7767C89.1248 76.7768 89.1248 76.777 89.1248 76.7771C89.1248 76.7772 89.1248 76.7773 89.1248 76.7774C89.1248 76.7775 89.1248 76.7776 89.1248 76.7777C89.1248 76.7778 89.1248 76.7779 89.1248 76.778C89.1248 76.7781 89.1248 76.7782 89.1248 76.7783C89.1248 76.7784 89.1248 76.7786 89.1248 76.7787C89.1248 76.7788 89.1248 76.7789 89.1248 76.779C89.1248 76.7791 89.1248 76.7792 89.1248 76.7793C89.1248 76.7794 89.1248 76.7795 89.1248 76.7796C89.1248 76.7797 89.1248 76.7798 89.1248 76.7799C89.1248 76.78 89.1248 76.7801 89.1248 76.7802C89.1248 76.7803 89.1248 76.7804 89.1248 76.7805C89.1248 76.7806 89.1248 76.7807 89.1248 76.7808C89.1248 76.7809 89.1248 76.781 89.1248 76.7811C89.1248 76.7812 89.1248 76.7812 89.1248 76.7813C89.1248 76.7814 89.1248 76.7815 89.1248 76.7816C89.1248 76.7817 89.1248 76.7818 89.1248 76.7819C89.1248 76.782 89.1248 76.7821 89.1248 76.7822C89.1248 76.7823 89.1248 76.7824 89.1248 76.7825C89.1248 76.7826 89.1248 76.7827 89.1248 76.7827C89.1248 76.7828 89.1248 76.7829 89.1248 76.783C89.1248 76.7831 89.1248 76.7832 89.1248 76.7833C89.1248 76.7834 89.1248 76.7835 89.1248 76.7835C89.1248 76.7836 89.1248 76.7837 89.1248 76.7838C89.1248 76.7839 89.1248 76.784 89.1248 76.7841C89.1248 76.7842 89.1248 76.7842 89.1248 76.7843C89.1248 76.7844 89.1248 76.7845 89.1248 76.7846C89.1248 76.7847 89.1248 76.7847 89.1248 76.7848C89.1248 76.7849 89.1248 76.785 89.1248 76.7851C89.1248 76.7852 89.1248 76.7852 89.1248 76.7853C89.1248 76.7854 89.1248 76.7855 89.1248 76.7856C89.1248 76.7856 89.1248 76.7857 89.1248 76.7858C89.1248 76.7859 89.1248 76.786 89.1248 76.786C89.1248 76.7861 89.1248 76.7862 89.1248 76.7863C89.1248 76.7864 89.1248 76.7864 89.1248 76.7865C89.1248 76.7866 89.1248 76.7867 89.1248 76.7867C89.1248 76.7868 89.1248 76.7869 89.1248 76.787C89.1248 76.787 89.1248 76.7871 89.1248 76.7872C89.1248 76.7873 89.1248 76.7873 89.1248 76.7874C89.1248 76.7875 89.1248 76.7876 89.1248 76.7876C89.1248 76.7877 89.1248 76.7878 89.1248 76.7878C89.1248 76.7879 89.1248 76.788 89.1248 76.7881C89.1248 76.7881 89.1248 76.7882 89.1248 76.7883C89.1248 76.7883 89.1248 76.7884 89.1248 76.7885C89.1248 76.7885 89.1248 76.7886 89.1248 76.7887C89.1248 76.7887 89.1248 76.7888 89.1248 76.7889C89.1248 76.7889 89.1248 76.789 89.1248 76.7891C89.1248 76.7891 89.1248 76.7892 89.1248 76.7893C89.1248 76.7893 89.1248 76.7894 89.1248 76.7895C89.1248 76.7895 89.1248 76.7896 89.1248 76.7897C89.1248 76.7897 89.1248 76.7898 89.1248 76.7898C89.1248 76.7899 89.1248 76.79 89.1248 76.79C89.1248 76.7901 89.1248 76.7901 89.1248 76.7902C89.1248 76.7903 89.1248 76.7903 89.1248 76.7904C89.1248 76.7904 89.1248 76.7905 89.1248 76.7906C89.1248 76.7906 89.1248 76.7907 89.1248 76.7907C89.1248 76.7908 89.1248 76.7908 89.1248 76.7909C89.1248 76.791 89.1248 76.791 89.1248 76.7911C89.1248 76.7911 89.1248 76.7912 89.1248 76.7912C89.1248 76.7913 89.1248 76.7913 89.1248 76.7914C89.1248 76.7915 89.1248 76.7915 89.1248 76.7916C89.1248 76.7916 89.1248 76.7917 89.1248 76.7917C89.1248 76.7918 89.1248 76.7918 89.1248 76.7919C89.1248 76.7919 89.1248 76.792 89.1248 76.792C89.1248 76.7921 89.1248 76.7921 89.1248 76.7922C89.1248 76.7922 89.1248 76.7923 89.1248 76.7923C89.1248 76.7924 89.1248 76.7924 89.1248 76.7925C89.1248 76.7925 89.1248 76.7925 89.1248 76.7926C89.1248 76.7926 89.1248 76.7927 89.1248 76.7927C89.1248 76.7928 89.1248 76.7928 89.1248 76.7929C89.1248 76.7929 89.1248 76.793 89.1248 76.793H90.8953C90.8953 76.793 90.8953 76.7929 90.8953 76.7929C90.8953 76.7928 90.8953 76.7928 90.8953 76.7927C90.8953 76.7927 90.8953 76.7926 90.8953 76.7926C90.8953 76.7925 90.8953 76.7925 90.8953 76.7925C90.8953 76.7924 90.8953 76.7924 90.8953 76.7923C90.8953 76.7923 90.8953 76.7922 90.8953 76.7922C90.8953 76.7921 90.8953 76.7921 90.8953 76.792C90.8953 76.792 90.8953 76.7919 90.8953 76.7919C90.8953 76.7918 90.8953 76.7918 90.8953 76.7917C90.8953 76.7917 90.8953 76.7916 90.8953 76.7916C90.8953 76.7915 90.8953 76.7915 90.8953 76.7914C90.8953 76.7913 90.8953 76.7913 90.8953 76.7912C90.8953 76.7912 90.8953 76.7911 90.8953 76.7911C90.8953 76.791 90.8953 76.791 90.8953 76.7909C90.8953 76.7908 90.8953 76.7908 90.8953 76.7907C90.8953 76.7907 90.8953 76.7906 90.8953 76.7906C90.8953 76.7905 90.8953 76.7904 90.8953 76.7904C90.8953 76.7903 90.8953 76.7903 90.8953 76.7902C90.8953 76.7901 90.8953 76.7901 90.8953 76.79C90.8953 76.79 90.8953 76.7899 90.8953 76.7898C90.8953 76.7898 90.8953 76.7897 90.8953 76.7897C90.8953 76.7896 90.8953 76.7895 90.8953 76.7895C90.8953 76.7894 90.8953 76.7893 90.8953 76.7893C90.8953 76.7892 90.8953 76.7891 90.8953 76.7891C90.8953 76.789 90.8953 76.7889 90.8953 76.7889C90.8953 76.7888 90.8953 76.7887 90.8953 76.7887C90.8953 76.7886 90.8953 76.7885 90.8953 76.7885C90.8953 76.7884 90.8953 76.7883 90.8953 76.7883C90.8953 76.7882 90.8953 76.7881 90.8953 76.7881C90.8953 76.788 90.8953 76.7879 90.8953 76.7878C90.8953 76.7878 90.8953 76.7877 90.8953 76.7876C90.8953 76.7876 90.8953 76.7875 90.8953 76.7874C90.8953 76.7873 90.8953 76.7873 90.8953 76.7872C90.8953 76.7871 90.8953 76.787 90.8953 76.787C90.8953 76.7869 90.8953 76.7868 90.8953 76.7867C90.8953 76.7867 90.8953 76.7866 90.8953 76.7865C90.8953 76.7864 90.8953 76.7864 90.8953 76.7863C90.8953 76.7862 90.8953 76.7861 90.8953 76.786C90.8953 76.786 90.8953 76.7859 90.8953 76.7858C90.8953 76.7857 90.8953 76.7856 90.8953 76.7856C90.8953 76.7855 90.8953 76.7854 90.8953 76.7853C90.8953 76.7852 90.8953 76.7852 90.8953 76.7851C90.8953 76.785 90.8953 76.7849 90.8953 76.7848C90.8953 76.7847 90.8953 76.7847 90.8953 76.7846C90.8953 76.7845 90.8953 76.7844 90.8953 76.7843C90.8953 76.7842 90.8953 76.7842 90.8953 76.7841C90.8953 76.784 90.8953 76.7839 90.8953 76.7838C90.8953 76.7837 90.8953 76.7836 90.8953 76.7835C90.8953 76.7835 90.8953 76.7834 90.8953 76.7833C90.8953 76.7832 90.8953 76.7831 90.8953 76.783C90.8953 76.7829 90.8953 76.7828 90.8953 76.7827C90.8953 76.7827 90.8953 76.7826 90.8953 76.7825C90.8953 76.7824 90.8953 76.7823 90.8953 76.7822C90.8953 76.7821 90.8953 76.782 90.8953 76.7819C90.8953 76.7818 90.8953 76.7817 90.8953 76.7816C90.8953 76.7815 90.8953 76.7814 90.8953 76.7813C90.8953 76.7812 90.8953 76.7812 90.8953 76.7811C90.8953 76.781 90.8953 76.7809 90.8953 76.7808C90.8953 76.7807 90.8953 76.7806 90.8953 76.7805C90.8953 76.7804 90.8953 76.7803 90.8953 76.7802C90.8953 76.7801 90.8953 76.78 90.8953 76.7799C90.8953 76.7798 90.8953 76.7797 90.8953 76.7796C90.8953 76.7795 90.8953 76.7794 90.8953 76.7793C90.8953 76.7792 90.8953 76.7791 90.8953 76.779C90.8953 76.7789 90.8953 76.7788 90.8953 76.7787C90.8953 76.7786 90.8953 76.7784 90.8953 76.7783C90.8953 76.7782 90.8953 76.7781 90.8953 76.778C90.8953 76.7779 90.8953 76.7778 90.8953 76.7777C90.8953 76.7776 90.8953 76.7775 90.8953 76.7774C90.8953 76.7773 90.8953 76.7772 90.8953 76.7771C90.8953 76.777 90.8953 76.7768 90.8953 76.7767C90.8953 76.7766 90.8953 76.7765 90.8953 76.7764C90.8953 76.7763 90.8953 76.7762 90.8953 76.7761C90.8953 76.776 90.8953 76.7759 90.8953 76.7757C90.8953 76.7756 90.8953 76.7755 90.8953 76.7754C90.8953 76.7753 90.8953 76.7752 90.8953 76.7751C90.8953 76.7749 90.8953 76.7748 90.8953 76.7747C90.8953 76.7746 90.8953 76.7745 90.8953 76.7744C90.8953 76.7743 90.8953 76.7741 90.8953 76.774C90.8953 76.7739 90.8953 76.7738 90.8953 76.7737C90.8953 76.7736 90.8953 76.7734 90.8953 76.7733C90.8953 76.7732 90.8953 76.7731 90.8953 76.773C90.8953 76.7728 90.8953 76.7727 90.8953 76.7726C90.8953 76.7725 90.8953 76.7724 90.8953 76.7722C90.8953 76.7721 90.8953 76.772 90.8953 76.7719C90.8953 76.7717 90.8953 76.7716 90.8953 76.7715C90.8953 76.7714 90.8953 76.7713 90.8953 76.7711C90.8953 76.771 90.8953 76.7709 90.8953 76.7708C90.8953 76.7706 90.8953 76.7705 90.8953 76.7704C90.8953 76.7703 90.8953 76.7701 90.8953 76.77C90.8953 76.7699 90.8953 76.7697 90.8953 76.7696C90.8953 76.7695 90.8953 76.7694 90.8953 76.7692C90.8953 76.7691 90.8953 76.769 90.8953 76.7688C90.8953 76.7687 90.8953 76.7686 90.8953 76.7685C90.8953 76.7683 90.8953 76.7682 90.8953 76.7681C90.8953 76.7679 90.8953 76.7678 90.8953 76.7677C90.8953 76.7675 90.8953 76.7674 90.8953 76.7673C90.8953 76.7671 90.8953 76.767 90.8953 76.7669C90.8953 76.7667 90.8953 76.7666 90.8953 76.7665C90.8953 76.7663 90.8953 76.7662 90.8953 76.766C90.8953 76.7659 90.8953 76.7658 90.8953 76.7656C90.8953 76.7655 90.8953 76.7654 90.8953 76.7652C90.8953 76.7651 90.8953 76.7649 90.8953 76.7648C90.8953 76.7647 90.8953 76.7645 90.8953 76.7644C90.8953 76.7643 90.8953 76.7641 90.8953 76.764C90.8953 76.7638 90.8953 76.7637 90.8953 76.7635C90.8953 76.7634 90.8953 76.7633 90.8953 76.7631C90.8953 76.763 90.8953 76.7628 90.8953 76.7627C90.8953 76.7625 90.8953 76.7624 90.8953 76.7623C90.8953 76.7621 90.8953 76.762 90.8953 76.7618C90.8953 76.7617 90.8953 76.7615 90.8953 76.7614C90.8953 76.7612 90.8953 76.7611 90.8953 76.7609C90.8953 76.7608 90.8953 76.7606 90.8953 76.7605C90.8953 76.7603 90.8953 76.7602 90.8953 76.76C90.8953 76.7599 90.8953 76.7597 90.8953 76.7596C90.8953 76.7594 90.8953 76.7593 90.8953 76.7591C90.8953 76.759 90.8953 76.7588 90.8953 76.7587C90.8953 76.7585 90.8953 76.7584 90.8953 76.7582C90.8953 76.7581 90.8953 76.7579 90.8953 76.7578C90.8953 76.7576 90.8953 76.7575 90.8953 76.7573C90.8953 76.7572 90.8953 76.757 90.8953 76.7568C90.8953 76.7567 90.8953 76.7565 90.8953 76.7564C90.8953 76.7562 90.8953 76.7561 90.8953 76.7559C90.8953 76.7557 90.8953 76.7556 90.8953 76.7554C90.8953 76.7553 90.8953 76.7551 90.8953 76.755C90.8953 76.7548 90.8953 76.7546 90.8953 76.7545C90.8953 76.7543 90.8953 76.7541 90.8953 76.754C90.8953 76.7538 90.8953 76.7537 90.8953 76.7535C90.8953 76.7533 90.8953 76.7532 90.8953 76.753C90.8953 76.7528 90.8953 76.7527 90.8953 76.7525C90.8953 76.7524 90.8953 76.7522 90.8953 76.752C90.8953 76.7519 90.8953 76.7517 90.8953 76.7515C90.8953 76.7514 90.8953 76.7512 90.8953 76.751C90.8953 76.7509 90.8953 76.7507 90.8953 76.7505C90.8953 76.7504 90.8953 76.7502 90.8953 76.75C90.8953 76.7499 90.8953 76.7497 90.8953 76.7495C90.8953 76.7493 90.8953 76.7492 90.8953 76.749C90.8953 76.7488 90.8953 76.7487 90.8953 76.7485C90.8953 76.7483 90.8953 76.7481 90.8953 76.748C90.8953 76.7478 90.8953 76.7476 90.8953 76.7475C90.8953 76.7473 90.8953 76.7471 90.8953 76.7469C90.8953 76.7468 90.8953 76.7466 90.8953 76.7464C90.8953 76.7462 90.8953 76.7461 90.8953 76.7459C90.8953 76.7457 90.8953 76.7455 90.8953 76.7453C90.8953 76.7452 90.8953 76.745 90.8953 76.7448C90.8953 76.7446 90.8953 76.7445 90.8953 76.7443C90.8953 76.7441 90.8953 76.7439 90.8953 76.7437C90.8953 76.7436 90.8953 76.7434 90.8953 76.7432C90.8953 76.743 90.8953 76.7428 90.8953 76.7427C90.8953 76.7425 90.8953 76.7423 90.8953 76.7421C90.8953 76.7419 90.8953 76.7417 90.8953 76.7416C90.8953 76.7414 90.8953 76.7412 90.8953 76.741C90.8953 76.7408 90.8953 76.7406 90.8953 76.7404C90.8953 76.7403 90.8953 76.7401 90.8953 76.7399C90.8953 76.7397 90.8953 76.7395 90.8953 76.7393C90.8953 76.7391 90.8953 76.739 90.8953 76.7388C90.8953 76.7386 90.8953 76.7384 90.8953 76.7382C90.8953 76.738 90.8953 76.7378 90.8953 76.7376C90.8953 76.7374 90.8953 76.7372 90.8953 76.7371C90.8953 76.7369 90.8953 76.7367 90.8953 76.7365C90.8953 76.7363 90.8953 76.7361 90.8953 76.7359C90.8953 76.7357 90.8953 76.7355 90.8953 76.7353C90.8953 76.7351 90.8953 76.7349 90.8953 76.7347C90.8953 76.7345 90.8953 76.7343 90.8953 76.7342C90.8953 76.734 90.8953 76.7338 90.8953 76.7336C90.8953 76.7334 90.8953 76.7332 90.8953 76.733C90.8953 76.7328 90.8953 76.7326 90.8953 76.7324C90.8953 76.7322 90.8953 76.732 90.8953 76.7318C90.8953 76.7316 90.8953 76.7314 90.8953 76.7312C90.8953 76.731 90.8953 76.7308 90.8953 76.7306C90.8953 76.7304 90.8953 76.7302 90.8953 76.73C90.8953 76.7298 90.8953 76.7296 90.8953 76.7294C90.8953 76.7292 90.8953 76.729 90.8953 76.7288C90.8953 76.7285 90.8953 76.7283 90.8953 76.7281C90.8953 76.7279 90.8953 76.7277 90.8953 76.7275C90.8953 76.7273 90.8953 76.7271 90.8953 76.7269C90.8953 76.7267 90.8953 76.7265 90.8953 76.7263C90.8953 76.7261 90.8953 76.7259 90.8953 76.7257C90.8953 76.7254 90.8953 76.7252 90.8953 76.725C90.8953 76.7248 90.8953 76.7246 90.8953 76.7244C90.8953 76.7242 90.8953 76.724 90.8953 76.7238C90.8953 76.7235 90.8953 76.7233 90.8953 76.7231C90.8953 76.7229 90.8953 76.7227 90.8953 76.7225C90.8953 76.7223 90.8953 76.7221 90.8953 76.7218C90.8953 76.7216 90.8953 76.7214 90.8953 76.7212C90.8953 76.721 90.8953 76.7208 90.8953 76.7205C90.8953 76.7203 90.8953 76.7201 90.8953 76.7199C90.8953 76.7197 90.8953 76.7195 90.8953 76.7192C90.8953 76.719 90.8953 76.7188 90.8953 76.7186C90.8953 76.7184 90.8953 76.7182 90.8953 76.7179C90.8953 76.7177 90.8953 76.7175 90.8953 76.7173C90.8953 76.717 90.8953 76.7168 90.8953 76.7166C90.8953 76.7164 90.8953 76.7162 90.8953 76.7159C90.8953 76.7157 90.8953 76.7155 90.8953 76.7153C90.8953 76.715 90.8953 76.7148 90.8953 76.7146C90.8953 76.7144 90.8953 76.7141 90.8953 76.7139C90.8953 76.7137 90.8953 76.7135 90.8953 76.7132C90.8953 76.713 90.8953 76.7128 90.8953 76.7126C90.8953 76.7123 90.8953 76.7121 90.8953 76.7119C90.8953 76.7116 90.8953 76.7114 90.8953 76.7112C90.8953 76.711 90.8953 76.7107 90.8953 76.7105C90.8953 76.7103 90.8953 76.71 90.8953 76.7098C90.8953 76.7096 90.8953 76.7093 90.8953 76.7091C90.8953 76.7089 90.8953 76.7086 90.8953 76.7084C90.8953 76.7082 90.8953 76.7079 90.8953 76.7077C90.8953 76.7075 90.8953 76.7072 90.8953 76.707C90.8953 76.7068 90.8953 76.7065 90.8953 76.7063C90.8953 76.7061 90.8953 76.7058 90.8953 76.7056C90.8953 76.7054 90.8953 76.7051 90.8953 76.7049C90.8953 76.7046 90.8953 76.7044 90.8953 76.7042C90.8953 76.7039 90.8953 76.7037 90.8953 76.7034C90.8953 76.7032 90.8953 76.703 90.8953 76.7027C90.8953 76.7025 90.8953 76.7022 90.8953 76.702C90.8953 76.7018 90.8953 76.7015 90.8953 76.7013C90.8953 76.701 90.8953 76.7008 90.8953 76.7006C90.8953 76.7003 90.8953 76.7001 90.8953 76.6998C90.8953 76.6996 90.8953 76.6993 90.8953 76.6991C90.8953 76.6988 90.8953 76.6986 90.8953 76.6983C90.8953 76.6981 90.8953 76.6979 90.8953 76.6976C90.8953 76.6974 90.8953 76.6971 90.8953 76.6969C90.8953 76.6966 90.8953 76.6964 90.8953 76.6961C90.8953 76.6959 90.8953 76.6956 90.8953 76.6954C90.8953 76.6951 90.8953 76.6949 90.8953 76.6946C90.8953 76.6944 90.8953 76.6941 90.8953 76.6939C90.8953 76.6936 90.8953 76.6934 90.8953 76.6931C90.8953 76.6929 90.8953 76.6926 90.8953 76.6924C90.8953 76.6921 90.8953 76.6918 90.8953 76.6916C90.8953 76.6913 90.8953 76.6911 90.8953 76.6908C90.8953 76.6906 90.8953 76.6903 90.8953 76.6901C90.8953 76.6898 90.8953 76.6895 90.8953 76.6893C90.8953 76.689 90.8953 76.6888 90.8953 76.6885C90.8953 76.6883 90.8953 76.688 90.8953 76.6877C90.8953 76.6875 90.8953 76.6872 90.8953 76.687C90.8953 76.6867 90.8953 76.6864 90.8953 76.6862C90.8953 76.6859 90.8953 76.6857 90.8953 76.6854C90.8953 76.6851 90.8953 76.6849 90.8953 76.6846C90.8953 76.6843 90.8953 76.6841 90.8953 76.6838C90.8953 76.6836 90.8953 76.6833 90.8953 76.683C90.8953 76.6828 90.8953 76.6825 90.8953 76.6822C90.8953 76.682 90.8953 76.6817 90.8953 76.6814C90.8953 76.6812 90.8953 76.6809 90.8953 76.6806C90.8953 76.6804 90.8953 76.6801 90.8953 76.6798C90.8953 76.6796 90.8953 76.6793 90.8953 76.679C90.8953 76.6787 90.8953 76.6785 90.8953 76.6782C90.8953 76.6779 90.8953 76.6777 90.8953 76.6774C90.8953 76.6771 90.8953 76.6769 90.8953 76.6766C90.8953 76.6763 90.8953 76.676 90.8953 76.6758C90.8953 76.6755 90.8953 76.6752 90.8953 76.6749C90.8953 76.6747 90.8953 76.6744 90.8953 76.6741C90.8953 76.6738 90.8953 76.6736 90.8953 76.6733C90.8953 76.673 90.8953 76.6727 90.8953 76.6725C90.8953 76.6722 90.8953 76.6719 90.8953 76.6716C90.8953 76.6714 90.8953 76.6711 90.8953 76.6708C90.8953 76.6705 90.8953 76.6702 90.8953 76.67C90.8953 76.6697 90.8953 76.6694 90.8953 76.6691C90.8953 76.6688 90.8953 76.6686 90.8953 76.6683C90.8953 76.668 90.8953 76.6677 90.8953 76.6674C90.8953 76.6671 90.8953 76.6669 90.8953 76.6666C90.8953 76.6663 90.8953 76.666 90.8953 76.6657C90.8953 76.6654 90.8953 76.6652 90.8953 76.6649C90.8953 76.6646 90.8953 76.6643 90.8953 76.664C90.8953 76.6637 90.8953 76.6634 90.8953 76.6632C90.8953 76.6629 90.8953 76.6626 90.8953 76.6623C90.8953 76.662 90.8953 76.6617 90.8953 76.6614C90.8953 76.6611 90.8953 76.6608 90.8953 76.6606C90.8953 76.6603 90.8953 76.66 90.8953 76.6597C90.8953 76.6594 90.8953 76.6591 90.8953 76.6588C90.8953 76.6585 90.8953 76.6582 90.8953 76.6579C90.8953 76.6576 90.8953 76.6574 90.8953 76.6571C90.8953 76.6568 90.8953 76.6565 90.8953 76.6562C90.8953 76.6559 90.8953 76.6556 90.8953 76.6553C90.8953 76.655 90.8953 76.6547 90.8953 76.6544C90.8953 76.6541 90.8953 76.6538 90.8953 76.6535C90.8953 76.6532 90.8953 76.6529 90.8953 76.6526C90.8953 76.6523 90.8953 76.652 90.8953 76.6517C90.8953 76.6514 90.8953 76.6511 90.8953 76.6508C90.8953 76.6505 90.8953 76.6502 90.8953 76.6499C90.8953 76.6496 90.8953 76.6493 90.8953 76.649C90.8953 76.6487 90.8953 76.6484 90.8953 76.6481C90.8953 76.6478 90.8953 76.6475 90.8953 76.6472C90.8953 76.6469 90.8953 76.6466 90.8953 76.6463C90.8953 76.646 90.8953 76.6457 90.8953 76.6454C90.8953 76.6451 90.8953 76.6448 90.8953 76.6445C90.8953 76.6441 90.8953 76.6438 90.8953 76.6435C90.8953 76.6432 90.8953 76.6429 90.8953 76.6426C90.8953 76.6423 90.8953 76.642 90.8953 76.6417C90.8953 76.6414 90.8953 76.6411 90.8953 76.6408C90.8953 76.6404 90.8953 76.6401 90.8953 76.6398C90.8953 76.6395 90.8953 76.6392 90.8953 76.6389C90.8953 76.6386 90.8953 76.6383 90.8953 76.6379C90.8953 76.6376 90.8953 76.6373 90.8953 76.637C90.8953 76.6367 90.8953 76.6364 90.8953 76.6361C90.8953 76.6357 90.8953 76.6354 90.8953 76.6351C90.8953 76.6348 90.8953 76.6345 90.8953 76.6342C90.8953 76.6339 90.8953 76.6335 90.8953 76.6332C90.8953 76.6329 90.8953 76.6326 90.8953 76.6323C90.8953 76.6319 90.8953 76.6316 90.8953 76.6313C90.8953 76.631 90.8953 76.6307 90.8953 76.6303C90.8953 76.63 90.8953 76.6297 90.8953 76.6294C90.8953 76.6291 90.8953 76.6287 90.8953 76.6284C90.8953 76.6281 90.8953 76.6278 90.8953 76.6274C90.8953 76.6271 90.8953 76.6268 90.8953 76.6265C90.8953 76.6261 90.8953 76.6258 90.8953 76.6255C90.8953 76.6252 90.8953 76.6248 90.8953 76.6245C90.8953 76.6242 90.8953 76.6239 90.8953 76.6235C90.8953 76.6232 90.8953 76.6229 90.8953 76.6226C90.8953 76.6222 90.8953 76.6219 90.8953 76.6216C90.8953 76.6212 90.8953 76.6209 90.8953 76.6206C90.8953 76.6203 90.8953 76.6199 90.8953 76.6196C90.8953 76.6193 90.8953 76.6189 90.8953 76.6186C90.8953 76.6183 90.8953 76.6179 90.8953 76.6176C90.8953 76.6173 90.8953 76.6169 90.8953 76.6166C90.8953 76.6163 90.8953 76.6159 90.8953 76.6156C90.8953 76.6153 90.8953 76.6149 90.8953 76.6146C90.8953 76.6143 90.8953 76.6139 90.8953 76.6136C90.8953 76.6133 90.8953 76.6129 90.8953 76.6126C90.8953 76.6122 90.8953 76.6119 90.8953 76.6116C90.8953 76.6112 90.8953 76.6109 90.8953 76.6106C90.8953 76.6102 90.8953 76.6099 90.8953 76.6095C90.8953 76.6092 90.8953 76.6089 90.8953 76.6085C90.8953 76.6082 90.8953 76.6078 90.8953 76.6075C90.8953 76.6071 90.8953 76.6068 90.8953 76.6065C90.8953 76.6061 90.8953 76.6058 90.8953 76.6054C90.8953 76.6051 90.8953 76.6047 90.8953 76.6044C90.8953 76.6041 90.8953 76.6037 90.8953 76.6034C90.8953 76.603 90.8953 76.6027 90.8953 76.6023C90.8953 76.602 90.8953 76.6016 90.8953 76.6013C90.8953 76.6009 90.8953 76.6006 90.8953 76.6002C90.8953 76.5999 90.8953 76.5995 90.8953 76.5992C90.8953 76.5988 90.8953 76.5985 90.8953 76.5981C90.8953 76.5978 90.8953 76.5974 90.8953 76.5971C90.8953 76.5967 90.8953 76.5964 90.8953 76.596C90.8953 76.5957 90.8953 76.5953 90.8953 76.595C90.8953 76.5946 90.8953 76.5943 90.8953 76.5939C90.8953 76.5936 90.8953 76.5932 90.8953 76.5928C90.8953 76.5925 90.8953 76.5921 90.8953 76.5918C90.8953 76.5914 90.8953 76.5911 90.8953 76.5907C90.8953 76.5904 90.8953 76.59 90.8953 76.5896C90.8953 76.5893 90.8953 76.5889 90.8953 76.5886C90.8953 76.5882 90.8953 76.5878 90.8953 76.5875C90.8953 76.5871 90.8953 76.5868 90.8953 76.5864C90.8953 76.586 90.8953 76.5857 90.8953 76.5853C90.8953 76.585 90.8953 76.5846 90.8953 76.5842C90.8953 76.5839 90.8953 76.5835 90.8953 76.5832C90.8953 76.5828 90.8953 76.5824 90.8953 76.5821C90.8953 76.5817 90.8953 76.5813 90.8953 76.581C90.8953 76.5806 90.8953 76.5802 90.8953 76.5799C90.8953 76.5795 90.8953 76.5791 90.8953 76.5788C90.8953 76.5784 90.8953 76.578 90.8953 76.5777C90.8953 76.5773 90.8953 76.5769 90.8953 76.5766C90.8953 76.5762 90.8953 76.5758 90.8953 76.5755C90.8953 76.5751 90.8953 76.5747 90.8953 76.5743C90.8953 76.574 90.8953 76.5736 90.8953 76.5732C90.8953 76.5729 90.8953 76.5725 90.8953 76.5721C90.8953 76.5717 90.8953 76.5714 90.8953 76.571C90.8953 76.5706 90.8953 76.5702 90.8953 76.5699C90.8953 76.5695 90.8953 76.5691 90.8953 76.5687C90.8953 76.5684 90.8953 76.568 90.8953 76.5676C90.8953 76.5672 90.8953 76.5669 90.8953 76.5665C90.8953 76.5661 90.8953 76.5657 90.8953 76.5654C90.8953 76.565 90.8953 76.5646 90.8953 76.5642C90.8953 76.5638 90.8953 76.5635 90.8953 76.5631C90.8953 76.5627 90.8953 76.5623 90.8953 76.5619C90.8953 76.5616 90.8953 76.5612 90.8953 76.5608C90.8953 76.5604 90.8953 76.56 90.8953 76.5596C90.8953 76.5593 90.8953 76.5589 90.8953 76.5585C90.8953 76.5581 90.8953 76.5577 90.8953 76.5573C90.8953 76.557 90.8953 76.5566 90.8953 76.5562C90.8953 76.5558 90.8953 76.5554 90.8953 76.555C90.8953 76.5546 90.8953 76.5543 90.8953 76.5539C90.8953 76.5535 90.8953 76.5531 90.8953 76.5527C90.8953 76.5523 90.8953 76.5519 90.8953 76.5515C90.8953 76.5511 90.8953 76.5508 90.8953 76.5504C90.8953 76.55 90.8953 76.5496 90.8953 76.5492C90.8953 76.5488 90.8953 76.5484 90.8953 76.548C90.8953 76.5476 90.8953 76.5472 90.8953 76.5468C90.8953 76.5464 90.8953 76.5461 90.8953 76.5457C90.8953 76.5453 90.8953 76.5449 90.8953 76.5445C90.8953 76.5441 90.8953 76.5437 90.8953 76.5433C90.8953 76.5429 90.8953 76.5425 90.8953 76.5421C90.8953 76.5417 90.8953 76.5413 90.8953 76.5409C90.8953 76.5405 90.8953 76.5401 90.8953 76.5397C90.8953 76.5393 90.8953 76.5389 90.8953 76.5385C90.8953 76.5381 90.8953 76.5377 90.8953 76.5373C90.8953 76.5369 90.8953 76.5365 90.8953 76.5361C90.8953 76.5357 90.8953 76.5353 90.8953 76.5349C90.8953 76.5345 90.8953 76.5341 90.8953 76.5337C90.8953 76.5333 90.8953 76.5329 90.8953 76.5325C90.8953 76.5321 90.8953 76.5317 90.8953 76.5313C90.8953 76.5309 90.8953 76.5305 90.8953 76.5301C90.8953 76.5296 90.8953 76.5292 90.8953 76.5288C90.8953 76.5284 90.8953 76.528 90.8953 76.5276C90.8953 76.5272 90.8953 76.5268 90.8953 76.5264C90.8953 76.526 90.8953 76.5256 90.8953 76.5252C90.8953 76.5247 90.8953 76.5243 90.8953 76.5239C90.8953 76.5235 90.8953 76.5231 90.8953 76.5227C90.8953 76.5223 90.8953 76.5219 90.8953 76.5215C90.8953 76.521 90.8953 76.5206 90.8953 76.5202C90.8953 76.5198 90.8953 76.5194 90.8953 76.519C90.8953 76.5186 90.8953 76.5181 90.8953 76.5177C90.8953 76.5173 90.8953 76.5169 90.8953 76.5165C90.8953 76.5161 90.8953 76.5156 90.8953 76.5152C90.8953 76.5148 90.8953 76.5144 90.8953 76.514C90.8953 76.5136 90.8953 76.5131 90.8953 76.5127C90.8953 76.5123 90.8953 76.5119 90.8953 76.5115C90.8953 76.511 90.8953 76.5106 90.8953 76.5102C90.8953 76.5098 90.8953 76.5094 90.8953 76.5089C90.8953 76.5085 90.8953 76.5081 90.8953 76.5077C90.8953 76.5072 90.8953 76.5068 90.8953 76.5064C90.8953 76.506 90.8953 76.5055 90.8953 76.5051C90.8953 76.5047 90.8953 76.5043 90.8953 76.5038C90.8953 76.5034 90.8953 76.503 90.8953 76.5026C90.8953 76.5021 90.8953 76.5017 90.8953 76.5013C90.8953 76.5009 90.8953 76.5004 90.8953 76.5C90.8953 76.4996 90.8953 76.4991 90.8953 76.4987C90.8953 76.4983 90.8953 76.4979 90.8953 76.4974C90.8953 76.497 90.8953 76.4966 90.8953 76.4961C90.8953 76.4957 90.8953 76.4953 90.8953 76.4948C90.8953 76.4944 90.8953 76.494 90.8953 76.4935C90.8953 76.4931 90.8953 76.4927 90.8953 76.4922C90.8953 76.4918 90.8953 76.4914 90.8953 76.4909C90.8953 76.4905 90.8953 76.4901 90.8953 76.4896C90.8953 76.4892 90.8953 76.4888 90.8953 76.4883C90.8953 76.4879 90.8953 76.4874 90.8953 76.487C90.8953 76.4866 90.8953 76.4861 90.8953 76.4857C90.8953 76.4853 90.8953 76.4848 90.8953 76.4844C90.8953 76.4839 90.8953 76.4835 90.8953 76.4831C90.8953 76.4826 90.8953 76.4822 90.8953 76.4817C90.8953 76.4813 90.8953 76.4808 90.8953 76.4804C90.8953 76.48 90.8953 76.4795 90.8953 76.4791C90.8953 76.4786 90.8953 76.4782 90.8953 76.4777C90.8953 76.4773 90.8953 76.4769 90.8953 76.4764C90.8953 76.476 90.8953 76.4755 90.8953 76.4751C90.8953 76.4746 90.8953 76.4742 90.8953 76.4737C90.8953 76.4733 90.8953 76.4728 90.8953 76.4724C90.8953 76.4719 90.8953 76.4715 90.8953 76.471C90.8953 76.4706 90.8953 76.4701 90.8953 76.4697C90.8953 76.4692 90.8953 76.4688 90.8953 76.4683C90.8953 76.4679 90.8953 76.4674 90.8953 76.467C90.8953 76.4665 90.8953 76.4661 90.8953 76.4656C90.8953 76.4652 90.8953 76.4647 90.8953 76.4643C90.8953 76.4638 90.8953 76.4634 90.8953 76.4629C90.8953 76.4625 90.8953 76.462 90.8953 76.4616C90.8953 76.4611 90.8953 76.4606 90.8953 76.4602C90.8953 76.4597 90.8953 76.4593 90.8953 76.4588C90.8953 76.4584 90.8953 76.4579 90.8953 76.4574C90.8953 76.457 90.8953 76.4565 90.8953 76.4561C90.8953 76.4556 90.8953 76.4551 90.8953 76.4547C90.8953 76.4542 90.8953 76.4538 90.8953 76.4533C90.8953 76.4528 90.8953 76.4524 90.8953 76.4519C90.8953 76.4515 90.8953 76.451 90.8953 76.4505C90.8953 76.4501 90.8953 76.4496 90.8953 76.4491C90.8953 76.4487 90.8953 76.4482 90.8953 76.4477C90.8953 76.4473 90.8953 76.4468 90.8953 76.4464C90.8953 76.4459 90.8953 76.4454 90.8953 76.445C90.8953 76.4445 90.8953 76.444 90.8953 76.4436C90.8953 76.4431 90.8953 76.4426 90.8953 76.4421C90.8953 76.4417 90.8953 76.4412 90.8953 76.4407C90.8953 76.4403 90.8953 76.4398 90.8953 76.4393C90.8953 76.4389 90.8953 76.4384 90.8953 76.4379C90.8953 76.4374 90.8953 76.437 90.8953 76.4365C90.8953 76.436 90.8953 76.4356 90.8953 76.4351C90.8953 76.4346 90.8953 76.4341 90.8953 76.4337C90.8953 76.4332 90.8953 76.4327 90.8953 76.4322C90.8953 76.4318 90.8953 76.4313 90.8953 76.4308C90.8953 76.4303 90.8953 76.4299 90.8953 76.4294C90.8953 76.4289 90.8953 76.4284 90.8953 76.428C90.8953 76.4275 90.8953 76.427 90.8953 76.4265C90.8953 76.426 90.8953 76.4256 90.8953 76.4251C90.8953 76.4246 90.8953 76.4241 90.8953 76.4236C90.8953 76.4232 90.8953 76.4227 90.8953 76.4222C90.8953 76.4217 90.8953 76.4212 90.8953 76.4207C90.8953 76.4203 90.8953 76.4198 90.8953 76.4193C90.8953 76.4188 90.8953 76.4183 90.8953 76.4178C90.8953 76.4174 90.8953 76.4169 90.8953 76.4164C90.8953 76.4159 90.8953 76.4154 90.8953 76.4149C90.8953 76.4145 90.8953 76.414 90.8953 76.4135C90.8953 76.413 90.8953 76.4125 90.8953 76.412C90.8953 76.4115 90.8953 76.411 90.8953 76.4105C90.8953 76.4101 90.8953 76.4096 90.8953 76.4091C90.8953 76.4086 90.8953 76.4081 90.8953 76.4076C90.8953 76.4071 90.8953 76.4066 90.8953 76.4061C90.8953 76.4056 90.8953 76.4052 90.8953 76.4047C90.8953 76.4042 90.8953 76.4037 90.8953 76.4032C90.8953 76.4027 90.8953 76.4022 90.8953 76.4017C90.8953 76.4012 90.8953 76.4007 90.8953 76.4002C90.8953 76.3997 90.8953 76.3992 90.8953 76.3987C90.8953 76.3982 90.8953 76.3977 90.8953 76.3972C90.8953 76.3967 90.8953 76.3962 90.8953 76.3957C90.8953 76.3952 90.8953 76.3947 90.8953 76.3942C90.8953 76.3937 90.8953 76.3932 90.8953 76.3927C90.8953 76.3922 90.8953 76.3917 90.8953 76.3912C90.8953 76.3907 90.8953 76.3902 90.8953 76.3897C90.8953 76.3892 90.8953 76.3887 90.8953 76.3882C90.8953 76.3877 90.8953 76.3872 90.8953 76.3867C90.8953 76.3862 90.8953 76.3857 90.8953 76.3852C90.8953 76.3847 90.8953 76.3842 90.8953 76.3837C90.8953 76.3832 90.8953 76.3827 90.8953 76.3822C90.8953 76.3817 90.8953 76.3812 90.8953 76.3807C90.8953 76.3801 90.8953 76.3796 90.8953 76.3791C90.8953 76.3786 90.8953 76.3781 90.8953 76.3776C90.8953 76.3771 90.8953 76.3766 90.8953 76.3761C90.8953 76.3756 90.8953 76.3751 90.8953 76.3745C90.8953 76.374 90.8953 76.3735 90.8953 76.373C90.8953 76.3725 90.8953 76.372 90.8953 76.3715C90.8953 76.371 90.8953 76.3704 90.8953 76.3699C90.8953 76.3694 90.8953 76.3689 90.8953 76.3684C90.8953 76.3679 90.8953 76.3674 90.8953 76.3668C90.8953 76.3663 90.8953 76.3658 90.8953 76.3653C90.8953 76.3648 90.8953 76.3643 90.8953 76.3637C90.8953 76.3632 90.8953 76.3627 90.8953 76.3622C90.8953 76.3617 90.8953 76.3611 90.8953 76.3606H89.1248ZM90.8953 76.793V76.7597H89.1248V76.793H90.8953ZM89.8322 75.8926L88.535 76.1587L88.8908 77.893L90.1879 77.6269L89.8322 75.8926ZM89.5047 76.6299C89.524 76.6686 89.5367 76.7017 89.5447 76.7245C89.5529 76.748 89.5584 76.7676 89.562 76.7813C89.5689 76.8078 89.5719 76.8263 89.5728 76.8316C89.5744 76.8418 89.5731 76.837 89.5712 76.8089C89.5676 76.7545 89.5649 76.6633 89.5649 76.5269H87.7944C87.7944 76.6788 87.7973 76.8149 87.8047 76.9267C87.8084 76.9819 87.8141 77.0449 87.824 77.1078C87.8299 77.145 87.8504 77.2801 87.9212 77.4217L89.5047 76.6299ZM89.5649 76.5269C89.5649 76.3266 89.6012 75.9143 89.6902 75.247L87.9352 75.013C87.8468 75.6761 87.7944 76.1951 87.7944 76.5269H89.5649ZM89.685 75.2804C89.792 74.6601 89.9765 73.7686 90.2415 72.5982L88.5147 72.2072C88.2476 73.3871 88.0551 74.3138 87.9403 74.9796L89.685 75.2804ZM90.2407 72.6018C90.5024 71.4676 90.8864 69.9967 91.3945 68.185L89.6899 67.7068C89.1781 69.5315 88.786 71.0318 88.5156 72.2037L90.2407 72.6018ZM91.3938 68.1877C91.9003 66.4038 92.5625 64.2294 93.3811 61.6627L91.6944 61.1247C90.8723 63.7023 90.2041 65.896 89.6906 67.7041L91.3938 68.1877ZM93.3781 61.672C94.4969 58.2939 96.1368 54.1534 98.3033 49.2456L96.6837 48.5306C94.5043 53.4676 92.8404 57.6643 91.6974 61.1154L93.3781 61.672ZM98.3024 49.2476C99.4546 46.6553 100.618 44.0629 101.792 41.4706L100.179 40.74C99.0034 43.3362 97.8384 45.9324 96.6846 48.5286L98.3024 49.2476ZM100.904 40.2239C97.3988 40.5504 93.4072 40.5193 88.9238 40.1237L88.7682 41.8873C93.3314 42.2899 97.433 42.3254 101.068 41.9867L100.904 40.2239ZM88.9316 40.1245C87.3072 39.9665 85.6932 39.8875 84.0898 39.8875V41.6579C85.635 41.6579 87.1918 41.7341 88.7603 41.8866L88.9316 40.1245Z" fill="#111035"/>
</svg>
